<mxfile host="app.diagrams.net" agent="Mozilla/5.0 (X11; Linux x86_64) AppleWebKit/537.36 (KHTML, like Gecko) Chrome/134.0.0.0 Safari/537.36" version="28.2.7">
  <diagram name="Page-1" id="1SqFphfAV8LGDlWM7X1T">
    <mxGraphModel dx="5510" dy="3839" grid="1" gridSize="10" guides="1" tooltips="1" connect="1" arrows="1" fold="1" page="1" pageScale="1" pageWidth="4681" pageHeight="3300" math="0" shadow="0">
      <root>
        <mxCell id="0" />
        <mxCell id="1" parent="0" />
        <mxCell id="ngfkE_zr7mjkjl-AqWGk-1" value="WA - Records created or inherited by the Bodies for Devolved Government in Wales" style="swimlane;fontStyle=0;childLayout=stackLayout;horizontal=1;startSize=40;strokeColor=#DAEEF3;fillColor=none;strokeWidth=3;horizontalStack=0;resizeParent=1;resizeParentMax=0;resizeLast=0;collapsible=1;marginBottom=0;whiteSpace=wrap;html=1;" parent="1" vertex="1">
          <mxGeometry x="390" y="270" width="270" height="66" as="geometry" />
        </mxCell>
        <mxCell id="ngfkE_zr7mjkjl-AqWGk-2" value="Record Set" style="text;strokeColor=#DAEEF3;strokeWidth=3;fillColor=none;align=center;verticalAlign=top;spacingLeft=4;spacingRight=4;overflow=hidden;rotatable=0;points=[[0,0.5],[1,0.5]];portConstraint=eastwest;whiteSpace=wrap;html=1;" parent="ngfkE_zr7mjkjl-AqWGk-1" vertex="1">
          <mxGeometry y="40" width="270" height="26" as="geometry" />
        </mxCell>
        <mxCell id="ngfkE_zr7mjkjl-AqWGk-3" value="" style="endArrow=classic;html=1;rounded=0;exitX=0.517;exitY=1.008;exitDx=0;exitDy=0;exitPerimeter=0;entryX=0.521;entryY=-0.037;entryDx=0;entryDy=0;entryPerimeter=0;" parent="1" source="ngfkE_zr7mjkjl-AqWGk-2" target="ngfkE_zr7mjkjl-AqWGk-7" edge="1">
          <mxGeometry relative="1" as="geometry">
            <mxPoint x="380" y="450" as="sourcePoint" />
            <mxPoint x="528" y="470" as="targetPoint" />
          </mxGeometry>
        </mxCell>
        <mxCell id="ngfkE_zr7mjkjl-AqWGk-4" value="includes or included" style="edgeLabel;resizable=0;html=1;;align=center;verticalAlign=middle;" parent="ngfkE_zr7mjkjl-AqWGk-3" connectable="0" vertex="1">
          <mxGeometry relative="1" as="geometry" />
        </mxCell>
        <mxCell id="ngfkE_zr7mjkjl-AqWGk-7" value="WA 16 - London 2012 Olympic and Paralympic Games: Digital and Paper Records" style="swimlane;fontStyle=0;childLayout=stackLayout;horizontal=1;startSize=40;strokeColor=#DAEEF3;fillColor=none;strokeWidth=3;horizontalStack=0;resizeParent=1;resizeParentMax=0;resizeLast=0;collapsible=1;marginBottom=0;whiteSpace=wrap;html=1;" parent="1" vertex="1">
          <mxGeometry x="398" y="809.5" width="260" height="66" as="geometry" />
        </mxCell>
        <mxCell id="ngfkE_zr7mjkjl-AqWGk-8" value="Record Set" style="text;strokeColor=#DAEEF3;strokeWidth=3;fillColor=none;align=center;verticalAlign=top;spacingLeft=4;spacingRight=4;overflow=hidden;rotatable=0;points=[[0,0.5],[1,0.5]];portConstraint=eastwest;whiteSpace=wrap;html=1;" parent="ngfkE_zr7mjkjl-AqWGk-7" vertex="1">
          <mxGeometry y="40" width="260" height="26" as="geometry" />
        </mxCell>
        <mxCell id="K3YaIifATm5BKoZFhJyY-1" value="&lt;span style=&quot;text-align: left;&quot;&gt;&lt;font style=&quot;font-size: 12px;&quot;&gt;WA 16/6 - London 2012 Olympic and Paralympic Games: Welsh Affairs Committee inquiry into tourism benefits; meetings between Minister for Culture, Welsh Language and Sport and Assembly Sponsored Bodies&lt;/font&gt;&lt;/span&gt;" style="swimlane;fontStyle=0;childLayout=stackLayout;horizontal=1;startSize=60;strokeColor=#DAEEF3;fillColor=none;strokeWidth=3;horizontalStack=0;resizeParent=1;resizeParentMax=0;resizeLast=0;collapsible=1;marginBottom=0;whiteSpace=wrap;html=1;" parent="1" vertex="1">
          <mxGeometry x="340" y="1390" width="390" height="86" as="geometry" />
        </mxCell>
        <mxCell id="K3YaIifATm5BKoZFhJyY-2" value="Record Set" style="text;strokeColor=#DAEEF3;strokeWidth=3;fillColor=none;align=center;verticalAlign=top;spacingLeft=4;spacingRight=4;overflow=hidden;rotatable=0;points=[[0,0.5],[1,0.5]];portConstraint=eastwest;whiteSpace=wrap;html=1;" parent="K3YaIifATm5BKoZFhJyY-1" vertex="1">
          <mxGeometry y="60" width="390" height="26" as="geometry" />
        </mxCell>
        <mxCell id="K3YaIifATm5BKoZFhJyY-3" value="" style="endArrow=classic;html=1;rounded=0;exitX=0.522;exitY=1.022;exitDx=0;exitDy=0;exitPerimeter=0;" parent="1" source="ngfkE_zr7mjkjl-AqWGk-8" edge="1">
          <mxGeometry relative="1" as="geometry">
            <mxPoint x="527.58" y="868" as="sourcePoint" />
            <mxPoint x="534" y="1390" as="targetPoint" />
          </mxGeometry>
        </mxCell>
        <mxCell id="K3YaIifATm5BKoZFhJyY-4" value="includes or included" style="edgeLabel;resizable=0;html=1;;align=center;verticalAlign=middle;" parent="K3YaIifATm5BKoZFhJyY-3" connectable="0" vertex="1">
          <mxGeometry relative="1" as="geometry" />
        </mxCell>
        <mxCell id="K3YaIifATm5BKoZFhJyY-5" value="&lt;span style=&quot;text-align: left;&quot;&gt;&lt;font style=&quot;font-size: 12px;&quot; face=&quot;Helvetica&quot;&gt;WA 16/QX/Z - UKWO Programme Board 25_08_11- Papers 1 from S Krouwel 20110822.msg&lt;/font&gt;&lt;/span&gt;" style="swimlane;fontStyle=0;childLayout=stackLayout;horizontal=1;startSize=43;strokeColor=#DAEEF3;strokeWidth=3;fillColor=none;horizontalStack=0;resizeParent=1;resizeParentMax=0;resizeLast=0;collapsible=1;marginBottom=0;whiteSpace=wrap;html=1;" parent="1" vertex="1">
          <mxGeometry x="1376.48" y="1023" width="290" height="69" as="geometry" />
        </mxCell>
        <mxCell id="K3YaIifATm5BKoZFhJyY-6" value="Record" style="text;strokeColor=#DAEEF3;strokeWidth=3;fillColor=none;align=center;verticalAlign=top;spacingLeft=4;spacingRight=4;overflow=hidden;rotatable=0;points=[[0,0.5],[1,0.5]];portConstraint=eastwest;whiteSpace=wrap;html=1;" parent="K3YaIifATm5BKoZFhJyY-5" vertex="1">
          <mxGeometry y="43" width="290" height="26" as="geometry" />
        </mxCell>
        <mxCell id="K3YaIifATm5BKoZFhJyY-7" value="" style="endArrow=classic;html=1;rounded=0;exitX=1;exitY=0.5;exitDx=0;exitDy=0;entryX=0;entryY=0.5;entryDx=0;entryDy=0;" parent="1" source="ngfkE_zr7mjkjl-AqWGk-7" target="K3YaIifATm5BKoZFhJyY-5" edge="1">
          <mxGeometry relative="1" as="geometry">
            <mxPoint x="718" y="858" as="sourcePoint" />
            <mxPoint x="720" y="1039" as="targetPoint" />
          </mxGeometry>
        </mxCell>
        <mxCell id="K3YaIifATm5BKoZFhJyY-8" value="includes or included" style="edgeLabel;resizable=0;html=1;;align=center;verticalAlign=middle;" parent="K3YaIifATm5BKoZFhJyY-7" connectable="0" vertex="1">
          <mxGeometry relative="1" as="geometry" />
        </mxCell>
        <mxCell id="K3YaIifATm5BKoZFhJyY-9" value="L98 - Organisation of the London 2012 Olympic and Paralympic Games" style="swimlane;fontStyle=0;childLayout=stackLayout;horizontal=1;startSize=40;strokeColor=#FFFAA0;strokeWidth=3;fillColor=none;horizontalStack=0;resizeParent=1;resizeParentMax=0;resizeLast=0;collapsible=1;marginBottom=0;whiteSpace=wrap;html=1;" parent="1" vertex="1">
          <mxGeometry x="1170" y="570" width="260" height="66" as="geometry" />
        </mxCell>
        <mxCell id="K3YaIifATm5BKoZFhJyY-10" value="Activity" style="text;strokeColor=#FFFAA0;strokeWidth=3;fillColor=none;align=center;verticalAlign=top;spacingLeft=4;spacingRight=4;overflow=hidden;rotatable=0;points=[[0,0.5],[1,0.5]];portConstraint=eastwest;whiteSpace=wrap;html=1;" parent="K3YaIifATm5BKoZFhJyY-9" vertex="1">
          <mxGeometry y="40" width="260" height="26" as="geometry" />
        </mxCell>
        <mxCell id="K3YaIifATm5BKoZFhJyY-11" value="" style="endArrow=classic;html=1;rounded=0;exitX=1;exitY=0;exitDx=0;exitDy=0;entryX=0.012;entryY=1.038;entryDx=0;entryDy=0;entryPerimeter=0;" parent="1" source="ngfkE_zr7mjkjl-AqWGk-7" target="K3YaIifATm5BKoZFhJyY-10" edge="1">
          <mxGeometry relative="1" as="geometry">
            <mxPoint x="648" y="778" as="sourcePoint" />
            <mxPoint x="863" y="778" as="targetPoint" />
          </mxGeometry>
        </mxCell>
        <mxCell id="K3YaIifATm5BKoZFhJyY-12" value="documents" style="edgeLabel;resizable=0;html=1;;align=center;verticalAlign=middle;" parent="K3YaIifATm5BKoZFhJyY-11" connectable="0" vertex="1">
          <mxGeometry relative="1" as="geometry" />
        </mxCell>
        <mxCell id="K3YaIifATm5BKoZFhJyY-13" value="WA 16/QX/Z1" style="swimlane;fontStyle=0;childLayout=stackLayout;horizontal=1;startSize=26;strokeColor=#F5DEB3;strokeWidth=2;fillColor=none;horizontalStack=0;resizeParent=1;resizeParentMax=0;resizeLast=0;collapsible=1;marginBottom=0;whiteSpace=wrap;html=1;" parent="1" vertex="1">
          <mxGeometry x="2068.15" y="1033.5" width="109" height="52" as="geometry" />
        </mxCell>
        <mxCell id="K3YaIifATm5BKoZFhJyY-14" value="Instantiation&lt;div&gt;&lt;br&gt;&lt;/div&gt;" style="text;strokeColor=#F5DEB3;strokeWidth=2;fillColor=#F5DEB3;align=center;verticalAlign=top;spacingLeft=4;spacingRight=4;overflow=hidden;rotatable=0;points=[[0,0.5],[1,0.5]];portConstraint=eastwest;whiteSpace=wrap;html=1;" parent="K3YaIifATm5BKoZFhJyY-13" vertex="1">
          <mxGeometry y="26" width="109" height="26" as="geometry" />
        </mxCell>
        <mxCell id="K3YaIifATm5BKoZFhJyY-15" value="" style="endArrow=classic;html=1;rounded=0;exitX=0;exitY=0.5;exitDx=0;exitDy=0;entryX=1;entryY=0.5;entryDx=0;entryDy=0;" parent="1" source="K3YaIifATm5BKoZFhJyY-13" target="K3YaIifATm5BKoZFhJyY-5" edge="1">
          <mxGeometry relative="1" as="geometry">
            <mxPoint x="1856.48" y="1057" as="sourcePoint" />
            <mxPoint x="1686.48" y="1057" as="targetPoint" />
          </mxGeometry>
        </mxCell>
        <mxCell id="K3YaIifATm5BKoZFhJyY-16" value="is or was instantiation of" style="edgeLabel;resizable=0;html=1;;align=center;verticalAlign=middle;" parent="K3YaIifATm5BKoZFhJyY-15" connectable="0" vertex="1">
          <mxGeometry relative="1" as="geometry" />
        </mxCell>
        <mxCell id="K3YaIifATm5BKoZFhJyY-18" value="" style="endArrow=classic;html=1;rounded=0;exitX=1;exitY=0.5;exitDx=0;exitDy=0;entryX=-0.018;entryY=0.195;entryDx=0;entryDy=0;entryPerimeter=0;" parent="1" source="ngfkE_zr7mjkjl-AqWGk-1" target="K3YaIifATm5BKoZFhJyY-21" edge="1">
          <mxGeometry relative="1" as="geometry">
            <mxPoint x="630" y="160" as="sourcePoint" />
            <mxPoint x="820" y="200" as="targetPoint" />
          </mxGeometry>
        </mxCell>
        <mxCell id="K3YaIifATm5BKoZFhJyY-19" value="has or had holder" style="edgeLabel;resizable=0;html=1;;align=center;verticalAlign=middle;" parent="K3YaIifATm5BKoZFhJyY-18" connectable="0" vertex="1">
          <mxGeometry relative="1" as="geometry" />
        </mxCell>
        <mxCell id="K3YaIifATm5BKoZFhJyY-20" value="66 - The National Archives" style="swimlane;fontStyle=0;childLayout=stackLayout;horizontal=1;startSize=26;strokeColor=#C6D9F1;strokeWidth=3;fillColor=none;horizontalStack=0;resizeParent=1;resizeParentMax=0;resizeLast=0;collapsible=1;marginBottom=0;whiteSpace=wrap;html=1;" parent="1" vertex="1">
          <mxGeometry x="970" y="220" width="150" height="52" as="geometry" />
        </mxCell>
        <mxCell id="K3YaIifATm5BKoZFhJyY-21" value="Corporate Body" style="text;strokeColor=#C6D9F1;strokeWidth=3;fillColor=none;align=center;verticalAlign=top;spacingLeft=4;spacingRight=4;overflow=hidden;rotatable=0;points=[[0,0.5],[1,0.5]];portConstraint=eastwest;whiteSpace=wrap;html=1;" parent="K3YaIifATm5BKoZFhJyY-20" vertex="1">
          <mxGeometry y="26" width="150" height="26" as="geometry" />
        </mxCell>
        <mxCell id="K3YaIifATm5BKoZFhJyY-22" value="GB/NNAF/C287344 - Welsh Government" style="swimlane;fontStyle=0;childLayout=stackLayout;horizontal=1;startSize=26;strokeColor=#C6D9F1;strokeWidth=3;fillColor=none;horizontalStack=0;resizeParent=1;resizeParentMax=0;resizeLast=0;collapsible=1;marginBottom=0;whiteSpace=wrap;html=1;" parent="1" vertex="1">
          <mxGeometry x="800" y="70" width="230" height="52" as="geometry" />
        </mxCell>
        <mxCell id="K3YaIifATm5BKoZFhJyY-23" value="Corporate Body" style="text;strokeColor=#C6D9F1;strokeWidth=3;fillColor=none;align=center;verticalAlign=top;spacingLeft=4;spacingRight=4;overflow=hidden;rotatable=0;points=[[0,0.5],[1,0.5]];portConstraint=eastwest;whiteSpace=wrap;html=1;" parent="K3YaIifATm5BKoZFhJyY-22" vertex="1">
          <mxGeometry y="26" width="230" height="26" as="geometry" />
        </mxCell>
        <mxCell id="K3YaIifATm5BKoZFhJyY-24" value="GB/NNAF/C287343 - Welsh Assembly Government" style="swimlane;fontStyle=0;childLayout=stackLayout;horizontal=1;startSize=40;strokeColor=#C6D9F1;strokeWidth=3;fillColor=none;horizontalStack=0;resizeParent=1;resizeParentMax=0;resizeLast=0;collapsible=1;marginBottom=0;whiteSpace=wrap;html=1;" parent="1" vertex="1">
          <mxGeometry x="570" y="-45" width="190" height="66" as="geometry" />
        </mxCell>
        <mxCell id="K3YaIifATm5BKoZFhJyY-25" value="Corporate Body" style="text;strokeColor=#C6D9F1;strokeWidth=3;fillColor=none;align=center;verticalAlign=top;spacingLeft=4;spacingRight=4;overflow=hidden;rotatable=0;points=[[0,0.5],[1,0.5]];portConstraint=eastwest;whiteSpace=wrap;html=1;" parent="K3YaIifATm5BKoZFhJyY-24" vertex="1">
          <mxGeometry y="40" width="190" height="26" as="geometry" />
        </mxCell>
        <mxCell id="K3YaIifATm5BKoZFhJyY-26" value="" style="endArrow=classic;html=1;rounded=0;exitX=1;exitY=0;exitDx=0;exitDy=0;entryX=0.513;entryY=1.038;entryDx=0;entryDy=0;entryPerimeter=0;" parent="1" source="ngfkE_zr7mjkjl-AqWGk-1" target="K3YaIifATm5BKoZFhJyY-23" edge="1">
          <mxGeometry relative="1" as="geometry">
            <mxPoint x="490" y="247" as="sourcePoint" />
            <mxPoint x="651" y="200" as="targetPoint" />
          </mxGeometry>
        </mxCell>
        <mxCell id="K3YaIifATm5BKoZFhJyY-27" value="has or had creator" style="edgeLabel;resizable=0;html=1;;align=center;verticalAlign=middle;" parent="K3YaIifATm5BKoZFhJyY-26" connectable="0" vertex="1">
          <mxGeometry relative="1" as="geometry" />
        </mxCell>
        <mxCell id="K3YaIifATm5BKoZFhJyY-29" value="" style="endArrow=classic;html=1;rounded=0;exitX=0.816;exitY=-0.029;exitDx=0;exitDy=0;entryX=0.532;entryY=1.077;entryDx=0;entryDy=0;entryPerimeter=0;exitPerimeter=0;" parent="1" source="ngfkE_zr7mjkjl-AqWGk-1" target="K3YaIifATm5BKoZFhJyY-25" edge="1">
          <mxGeometry relative="1" as="geometry">
            <mxPoint x="460" y="300" as="sourcePoint" />
            <mxPoint x="538" y="153" as="targetPoint" />
          </mxGeometry>
        </mxCell>
        <mxCell id="K3YaIifATm5BKoZFhJyY-30" value="has or had creator" style="edgeLabel;resizable=0;html=1;;align=center;verticalAlign=middle;" parent="K3YaIifATm5BKoZFhJyY-29" connectable="0" vertex="1">
          <mxGeometry relative="1" as="geometry" />
        </mxCell>
        <mxCell id="K3YaIifATm5BKoZFhJyY-31" value="GB/NNAF/C284400 - National Assembly for Wales" style="swimlane;fontStyle=0;childLayout=stackLayout;horizontal=1;startSize=40;strokeColor=#C6D9F1;strokeWidth=3;fillColor=none;horizontalStack=0;resizeParent=1;resizeParentMax=0;resizeLast=0;collapsible=1;marginBottom=0;whiteSpace=wrap;html=1;" parent="1" vertex="1">
          <mxGeometry x="270" y="-45" width="190" height="66" as="geometry" />
        </mxCell>
        <mxCell id="K3YaIifATm5BKoZFhJyY-32" value="Corporate Body" style="text;strokeColor=#C6D9F1;strokeWidth=3;fillColor=none;align=center;verticalAlign=top;spacingLeft=4;spacingRight=4;overflow=hidden;rotatable=0;points=[[0,0.5],[1,0.5]];portConstraint=eastwest;whiteSpace=wrap;html=1;" parent="K3YaIifATm5BKoZFhJyY-31" vertex="1">
          <mxGeometry y="40" width="190" height="26" as="geometry" />
        </mxCell>
        <mxCell id="K3YaIifATm5BKoZFhJyY-33" value="" style="endArrow=classic;html=1;rounded=0;exitX=0.594;exitY=-0.029;exitDx=0;exitDy=0;entryX=0.705;entryY=1.038;entryDx=0;entryDy=0;exitPerimeter=0;entryPerimeter=0;" parent="1" source="ngfkE_zr7mjkjl-AqWGk-1" target="K3YaIifATm5BKoZFhJyY-32" edge="1">
          <mxGeometry relative="1" as="geometry">
            <mxPoint x="399" y="373" as="sourcePoint" />
            <mxPoint x="250" y="210" as="targetPoint" />
          </mxGeometry>
        </mxCell>
        <mxCell id="K3YaIifATm5BKoZFhJyY-34" value="has or had creator" style="edgeLabel;resizable=0;html=1;;align=center;verticalAlign=middle;" parent="K3YaIifATm5BKoZFhJyY-33" connectable="0" vertex="1">
          <mxGeometry relative="1" as="geometry" />
        </mxCell>
        <mxCell id="K3YaIifATm5BKoZFhJyY-35" value="Records created or inherited by the Bodies for Devolved Government in Wales" style="html=1;whiteSpace=wrap;rounded=1;arcSize=50;" parent="1" vertex="1">
          <mxGeometry x="-90" y="36" width="270" height="60" as="geometry" />
        </mxCell>
        <mxCell id="K3YaIifATm5BKoZFhJyY-36" value="" style="endArrow=classic;html=1;rounded=0;entryX=0.959;entryY=0.869;entryDx=0;entryDy=0;exitX=0.189;exitY=-0.03;exitDx=0;exitDy=0;exitPerimeter=0;entryPerimeter=0;" parent="1" source="ngfkE_zr7mjkjl-AqWGk-1" target="K3YaIifATm5BKoZFhJyY-35" edge="1">
          <mxGeometry relative="1" as="geometry">
            <mxPoint x="270" y="336" as="sourcePoint" />
            <mxPoint x="270" y="478" as="targetPoint" />
          </mxGeometry>
        </mxCell>
        <mxCell id="K3YaIifATm5BKoZFhJyY-37" value="name" style="edgeLabel;resizable=0;html=1;;align=center;verticalAlign=middle;" parent="K3YaIifATm5BKoZFhJyY-36" connectable="0" vertex="1">
          <mxGeometry relative="1" as="geometry" />
        </mxCell>
        <mxCell id="K3YaIifATm5BKoZFhJyY-38" value="WA" style="html=1;whiteSpace=wrap;rounded=1;arcSize=50;" parent="1" vertex="1">
          <mxGeometry x="-10" y="140" width="110" height="40" as="geometry" />
        </mxCell>
        <mxCell id="K3YaIifATm5BKoZFhJyY-39" value="" style="endArrow=classic;html=1;rounded=0;entryX=1;entryY=0.5;entryDx=0;entryDy=0;exitX=0;exitY=0.25;exitDx=0;exitDy=0;" parent="1" source="ngfkE_zr7mjkjl-AqWGk-1" target="K3YaIifATm5BKoZFhJyY-38" edge="1">
          <mxGeometry relative="1" as="geometry">
            <mxPoint x="458" y="380" as="sourcePoint" />
            <mxPoint x="190" y="347" as="targetPoint" />
          </mxGeometry>
        </mxCell>
        <mxCell id="K3YaIifATm5BKoZFhJyY-40" value="identifier" style="edgeLabel;resizable=0;html=1;;align=center;verticalAlign=middle;" parent="K3YaIifATm5BKoZFhJyY-39" connectable="0" vertex="1">
          <mxGeometry relative="1" as="geometry" />
        </mxCell>
        <mxCell id="K3YaIifATm5BKoZFhJyY-42" value="" style="endArrow=classic;html=1;rounded=0;exitX=0;exitY=0.5;exitDx=0;exitDy=0;" parent="1" source="ngfkE_zr7mjkjl-AqWGk-1" target="K3YaIifATm5BKoZFhJyY-44" edge="1">
          <mxGeometry relative="1" as="geometry">
            <mxPoint x="350" y="395" as="sourcePoint" />
            <mxPoint x="100" y="320" as="targetPoint" />
          </mxGeometry>
        </mxCell>
        <mxCell id="K3YaIifATm5BKoZFhJyY-43" value="record set type" style="edgeLabel;resizable=0;html=1;;align=center;verticalAlign=middle;" parent="K3YaIifATm5BKoZFhJyY-42" connectable="0" vertex="1">
          <mxGeometry relative="1" as="geometry" />
        </mxCell>
        <mxCell id="K3YaIifATm5BKoZFhJyY-44" value="Fonds" style="html=1;whiteSpace=wrap;rounded=1;arcSize=50;" parent="1" vertex="1">
          <mxGeometry x="-10" y="236" width="110" height="40" as="geometry" />
        </mxCell>
        <mxCell id="K3YaIifATm5BKoZFhJyY-45" value="" style="endArrow=classic;html=1;rounded=0;exitX=-0.003;exitY=0.968;exitDx=0;exitDy=0;exitPerimeter=0;entryX=1;entryY=0.5;entryDx=0;entryDy=0;" parent="1" source="ngfkE_zr7mjkjl-AqWGk-2" target="K3YaIifATm5BKoZFhJyY-47" edge="1">
          <mxGeometry relative="1" as="geometry">
            <mxPoint x="370" y="360" as="sourcePoint" />
            <mxPoint x="90" y="390" as="targetPoint" />
          </mxGeometry>
        </mxCell>
        <mxCell id="K3YaIifATm5BKoZFhJyY-46" value="language" style="edgeLabel;resizable=0;html=1;;align=center;verticalAlign=middle;" parent="K3YaIifATm5BKoZFhJyY-45" connectable="0" vertex="1">
          <mxGeometry relative="1" as="geometry" />
        </mxCell>
        <mxCell id="K3YaIifATm5BKoZFhJyY-47" value="English" style="html=1;whiteSpace=wrap;rounded=1;arcSize=50;" parent="1" vertex="1">
          <mxGeometry x="-10" y="336" width="110" height="40" as="geometry" />
        </mxCell>
        <mxCell id="K3YaIifATm5BKoZFhJyY-48" value="" style="endArrow=classic;html=1;rounded=0;exitX=0.083;exitY=1.186;exitDx=0;exitDy=0;exitPerimeter=0;entryX=0.949;entryY=0.22;entryDx=0;entryDy=0;entryPerimeter=0;" parent="1" source="ngfkE_zr7mjkjl-AqWGk-2" target="K3YaIifATm5BKoZFhJyY-50" edge="1">
          <mxGeometry relative="1" as="geometry">
            <mxPoint x="439" y="420" as="sourcePoint" />
            <mxPoint x="150" y="510" as="targetPoint" />
          </mxGeometry>
        </mxCell>
        <mxCell id="K3YaIifATm5BKoZFhJyY-49" value="conditions of access" style="edgeLabel;resizable=0;html=1;;align=center;verticalAlign=middle;" parent="K3YaIifATm5BKoZFhJyY-48" connectable="0" vertex="1">
          <mxGeometry relative="1" as="geometry">
            <mxPoint x="-14" y="7" as="offset" />
          </mxGeometry>
        </mxCell>
        <mxCell id="K3YaIifATm5BKoZFhJyY-50" value="Open" style="html=1;whiteSpace=wrap;rounded=1;arcSize=50;" parent="1" vertex="1">
          <mxGeometry x="-10" y="436" width="110" height="40" as="geometry" />
        </mxCell>
        <mxCell id="K3YaIifATm5BKoZFhJyY-54" value="WA 16" style="html=1;whiteSpace=wrap;rounded=1;arcSize=50;" parent="1" vertex="1">
          <mxGeometry x="-10" y="712" width="110" height="40" as="geometry" />
        </mxCell>
        <mxCell id="K3YaIifATm5BKoZFhJyY-55" value="" style="endArrow=classic;html=1;rounded=0;entryX=1;entryY=0.5;entryDx=0;entryDy=0;exitX=-0.002;exitY=0.148;exitDx=0;exitDy=0;exitPerimeter=0;" parent="1" source="ngfkE_zr7mjkjl-AqWGk-7" target="K3YaIifATm5BKoZFhJyY-54" edge="1">
          <mxGeometry relative="1" as="geometry">
            <mxPoint x="376" y="817" as="sourcePoint" />
            <mxPoint x="176" y="877" as="targetPoint" />
          </mxGeometry>
        </mxCell>
        <mxCell id="K3YaIifATm5BKoZFhJyY-56" value="identifier" style="edgeLabel;resizable=0;html=1;;align=center;verticalAlign=middle;" parent="K3YaIifATm5BKoZFhJyY-55" connectable="0" vertex="1">
          <mxGeometry relative="1" as="geometry" />
        </mxCell>
        <mxCell id="K3YaIifATm5BKoZFhJyY-57" value="" style="endArrow=classic;html=1;rounded=0;exitX=-0.007;exitY=0.398;exitDx=0;exitDy=0;exitPerimeter=0;" parent="1" source="ngfkE_zr7mjkjl-AqWGk-7" target="K3YaIifATm5BKoZFhJyY-59" edge="1">
          <mxGeometry relative="1" as="geometry">
            <mxPoint x="376" y="833" as="sourcePoint" />
            <mxPoint x="86" y="850" as="targetPoint" />
          </mxGeometry>
        </mxCell>
        <mxCell id="K3YaIifATm5BKoZFhJyY-58" value="record set type" style="edgeLabel;resizable=0;html=1;;align=center;verticalAlign=middle;" parent="K3YaIifATm5BKoZFhJyY-57" connectable="0" vertex="1">
          <mxGeometry relative="1" as="geometry" />
        </mxCell>
        <mxCell id="K3YaIifATm5BKoZFhJyY-59" value="Series" style="html=1;whiteSpace=wrap;rounded=1;arcSize=50;" parent="1" vertex="1">
          <mxGeometry x="-10" y="808" width="110" height="40" as="geometry" />
        </mxCell>
        <mxCell id="K3YaIifATm5BKoZFhJyY-60" value="" style="endArrow=classic;html=1;rounded=0;exitX=-0.007;exitY=0.105;exitDx=0;exitDy=0;exitPerimeter=0;entryX=1;entryY=0.5;entryDx=0;entryDy=0;" parent="1" source="ngfkE_zr7mjkjl-AqWGk-8" target="K3YaIifATm5BKoZFhJyY-62" edge="1">
          <mxGeometry relative="1" as="geometry">
            <mxPoint x="375" y="865" as="sourcePoint" />
            <mxPoint x="76" y="920" as="targetPoint" />
          </mxGeometry>
        </mxCell>
        <mxCell id="K3YaIifATm5BKoZFhJyY-61" value="language" style="edgeLabel;resizable=0;html=1;;align=center;verticalAlign=middle;" parent="K3YaIifATm5BKoZFhJyY-60" connectable="0" vertex="1">
          <mxGeometry relative="1" as="geometry" />
        </mxCell>
        <mxCell id="K3YaIifATm5BKoZFhJyY-62" value="English" style="html=1;whiteSpace=wrap;rounded=1;arcSize=50;" parent="1" vertex="1">
          <mxGeometry x="-10" y="908" width="110" height="40" as="geometry" />
        </mxCell>
        <mxCell id="K3YaIifATm5BKoZFhJyY-63" value="" style="endArrow=classic;html=1;rounded=0;exitX=0.083;exitY=1.186;exitDx=0;exitDy=0;exitPerimeter=0;entryX=0.949;entryY=0.22;entryDx=0;entryDy=0;entryPerimeter=0;" parent="1" target="K3YaIifATm5BKoZFhJyY-65" edge="1">
          <mxGeometry relative="1" as="geometry">
            <mxPoint x="398" y="871" as="sourcePoint" />
            <mxPoint x="136" y="1040" as="targetPoint" />
          </mxGeometry>
        </mxCell>
        <mxCell id="K3YaIifATm5BKoZFhJyY-64" value="conditions of access" style="edgeLabel;resizable=0;html=1;;align=center;verticalAlign=middle;" parent="K3YaIifATm5BKoZFhJyY-63" connectable="0" vertex="1">
          <mxGeometry relative="1" as="geometry">
            <mxPoint x="-14" y="7" as="offset" />
          </mxGeometry>
        </mxCell>
        <mxCell id="K3YaIifATm5BKoZFhJyY-65" value="Open" style="html=1;whiteSpace=wrap;rounded=1;arcSize=50;" parent="1" vertex="1">
          <mxGeometry x="-10" y="1008" width="110" height="40" as="geometry" />
        </mxCell>
        <mxCell id="K3YaIifATm5BKoZFhJyY-66" value="" style="endArrow=classic;html=1;rounded=0;entryX=0.592;entryY=1.049;entryDx=0;entryDy=0;exitX=0.292;exitY=-0.012;exitDx=0;exitDy=0;exitPerimeter=0;entryPerimeter=0;" parent="1" source="ngfkE_zr7mjkjl-AqWGk-7" target="K3YaIifATm5BKoZFhJyY-69" edge="1">
          <mxGeometry relative="1" as="geometry">
            <mxPoint x="487" y="756" as="sourcePoint" />
            <mxPoint x="190" y="617" as="targetPoint" />
          </mxGeometry>
        </mxCell>
        <mxCell id="K3YaIifATm5BKoZFhJyY-67" value="record resource extent" style="edgeLabel;resizable=0;html=1;;align=center;verticalAlign=middle;" parent="K3YaIifATm5BKoZFhJyY-66" connectable="0" vertex="1">
          <mxGeometry relative="1" as="geometry" />
        </mxCell>
        <mxCell id="K3YaIifATm5BKoZFhJyY-69" value="5664 paper files and digital records" style="html=1;whiteSpace=wrap;rounded=1;arcSize=50;" parent="1" vertex="1">
          <mxGeometry x="240" y="570" width="125" height="48" as="geometry" />
        </mxCell>
        <mxCell id="K3YaIifATm5BKoZFhJyY-70" value="abc - 01/01/1969-" style="swimlane;fontStyle=0;childLayout=stackLayout;horizontal=1;startSize=26;strokeColor=#DDD9C3;strokeWidth=2;fillColor=none;horizontalStack=0;resizeParent=1;resizeParentMax=0;resizeLast=0;collapsible=1;marginBottom=0;whiteSpace=wrap;html=1;" parent="1" vertex="1">
          <mxGeometry x="723.44" y="433" width="120" height="52" as="geometry" />
        </mxCell>
        <mxCell id="K3YaIifATm5BKoZFhJyY-71" value="Date" style="text;strokeColor=#DDD9C3;strokeWidth=2;fillColor=#DDD9C3;align=center;verticalAlign=top;spacingLeft=4;spacingRight=4;overflow=hidden;rotatable=0;points=[[0,0.5],[1,0.5]];portConstraint=eastwest;whiteSpace=wrap;html=1;" parent="K3YaIifATm5BKoZFhJyY-70" vertex="1">
          <mxGeometry y="26" width="120" height="26" as="geometry" />
        </mxCell>
        <mxCell id="K3YaIifATm5BKoZFhJyY-72" value="" style="endArrow=classic;html=1;rounded=0;exitX=0.185;exitY=-0.072;exitDx=0;exitDy=0;entryX=0.856;entryY=1.183;entryDx=0;entryDy=0;entryPerimeter=0;exitPerimeter=0;" parent="1" source="K3YaIifATm5BKoZFhJyY-70" target="ngfkE_zr7mjkjl-AqWGk-2" edge="1">
          <mxGeometry relative="1" as="geometry">
            <mxPoint x="653" y="492" as="sourcePoint" />
            <mxPoint x="890" y="450" as="targetPoint" />
          </mxGeometry>
        </mxCell>
        <mxCell id="K3YaIifATm5BKoZFhJyY-73" value="is or was creation date of most members of" style="edgeLabel;resizable=0;html=1;;align=center;verticalAlign=middle;" parent="K3YaIifATm5BKoZFhJyY-72" connectable="0" vertex="1">
          <mxGeometry relative="1" as="geometry" />
        </mxCell>
        <mxCell id="K3YaIifATm5BKoZFhJyY-74" value="" style="endArrow=classic;html=1;rounded=0;exitX=1;exitY=0.25;exitDx=0;exitDy=0;" parent="1" source="K3YaIifATm5BKoZFhJyY-70" target="K3YaIifATm5BKoZFhJyY-76" edge="1">
          <mxGeometry relative="1" as="geometry">
            <mxPoint x="833.44" y="449" as="sourcePoint" />
            <mxPoint x="1043.44" y="373" as="targetPoint" />
          </mxGeometry>
        </mxCell>
        <mxCell id="K3YaIifATm5BKoZFhJyY-75" value="expressed date" style="edgeLabel;resizable=0;html=1;;align=center;verticalAlign=middle;" parent="K3YaIifATm5BKoZFhJyY-74" connectable="0" vertex="1">
          <mxGeometry relative="1" as="geometry" />
        </mxCell>
        <mxCell id="K3YaIifATm5BKoZFhJyY-76" value="01/01/1969-" style="html=1;whiteSpace=wrap;rounded=1;arcSize=50;" parent="1" vertex="1">
          <mxGeometry x="983.44" y="388" width="110" height="45" as="geometry" />
        </mxCell>
        <mxCell id="K3YaIifATm5BKoZFhJyY-77" value="" style="endArrow=classic;html=1;rounded=0;exitX=1;exitY=0.5;exitDx=0;exitDy=0;entryX=0;entryY=0.5;entryDx=0;entryDy=0;" parent="1" source="K3YaIifATm5BKoZFhJyY-71" target="K3YaIifATm5BKoZFhJyY-79" edge="1">
          <mxGeometry relative="1" as="geometry">
            <mxPoint x="843.44" y="532" as="sourcePoint" />
            <mxPoint x="993.44" y="533" as="targetPoint" />
          </mxGeometry>
        </mxCell>
        <mxCell id="K3YaIifATm5BKoZFhJyY-78" value="normalized date" style="edgeLabel;resizable=0;html=1;;align=center;verticalAlign=middle;" parent="K3YaIifATm5BKoZFhJyY-77" connectable="0" vertex="1">
          <mxGeometry relative="1" as="geometry" />
        </mxCell>
        <mxCell id="K3YaIifATm5BKoZFhJyY-79" value="1969-01-01/.." style="html=1;whiteSpace=wrap;rounded=1;arcSize=50;" parent="1" vertex="1">
          <mxGeometry x="991.44" y="506" width="110" height="45" as="geometry" />
        </mxCell>
        <mxCell id="K3YaIifATm5BKoZFhJyY-80" value="London 2012 Olympic and Paralympic Games: Digital and Paper Records" style="html=1;whiteSpace=wrap;rounded=1;arcSize=50;" parent="1" vertex="1">
          <mxGeometry x="-50" y="602" width="200" height="50" as="geometry" />
        </mxCell>
        <mxCell id="K3YaIifATm5BKoZFhJyY-81" value="" style="endArrow=classic;html=1;rounded=0;entryX=1.005;entryY=0.64;entryDx=0;entryDy=0;exitX=0.092;exitY=-0.053;exitDx=0;exitDy=0;exitPerimeter=0;entryPerimeter=0;" parent="1" source="ngfkE_zr7mjkjl-AqWGk-7" target="K3YaIifATm5BKoZFhJyY-80" edge="1">
          <mxGeometry relative="1" as="geometry">
            <mxPoint x="437" y="789" as="sourcePoint" />
            <mxPoint x="140" y="720" as="targetPoint" />
          </mxGeometry>
        </mxCell>
        <mxCell id="K3YaIifATm5BKoZFhJyY-82" value="name" style="edgeLabel;resizable=0;html=1;;align=center;verticalAlign=middle;" parent="K3YaIifATm5BKoZFhJyY-81" connectable="0" vertex="1">
          <mxGeometry relative="1" as="geometry" />
        </mxCell>
        <mxCell id="PuATXxOclRqr7p0WLP5T-1" value="dfg - 2013 - 2016" style="swimlane;fontStyle=0;childLayout=stackLayout;horizontal=1;startSize=26;strokeColor=#DDD9C3;strokeWidth=2;fillColor=none;horizontalStack=0;resizeParent=1;resizeParentMax=0;resizeLast=0;collapsible=1;marginBottom=0;whiteSpace=wrap;html=1;" parent="1" vertex="1">
          <mxGeometry x="780" y="1188" width="127" height="52" as="geometry" />
        </mxCell>
        <mxCell id="PuATXxOclRqr7p0WLP5T-2" value="Date" style="text;strokeColor=#DDD9C3;strokeWidth=2;fillColor=#DDD9C3;align=center;verticalAlign=top;spacingLeft=4;spacingRight=4;overflow=hidden;rotatable=0;points=[[0,0.5],[1,0.5]];portConstraint=eastwest;whiteSpace=wrap;html=1;" parent="PuATXxOclRqr7p0WLP5T-1" vertex="1">
          <mxGeometry y="26" width="127" height="26" as="geometry" />
        </mxCell>
        <mxCell id="PuATXxOclRqr7p0WLP5T-3" value="" style="endArrow=classic;html=1;rounded=0;exitX=0;exitY=0;exitDx=0;exitDy=0;entryX=1.007;entryY=0.988;entryDx=0;entryDy=0;entryPerimeter=0;" parent="1" source="PuATXxOclRqr7p0WLP5T-1" target="ngfkE_zr7mjkjl-AqWGk-8" edge="1">
          <mxGeometry relative="1" as="geometry">
            <mxPoint x="860" y="990" as="sourcePoint" />
            <mxPoint x="580" y="927" as="targetPoint" />
          </mxGeometry>
        </mxCell>
        <mxCell id="PuATXxOclRqr7p0WLP5T-4" value="is or was creation date of most members of" style="edgeLabel;resizable=0;html=1;;align=center;verticalAlign=middle;" parent="PuATXxOclRqr7p0WLP5T-3" connectable="0" vertex="1">
          <mxGeometry relative="1" as="geometry" />
        </mxCell>
        <mxCell id="PuATXxOclRqr7p0WLP5T-5" value="" style="endArrow=classic;html=1;rounded=0;exitX=0.645;exitY=1.032;exitDx=0;exitDy=0;exitPerimeter=0;" parent="1" source="K3YaIifATm5BKoZFhJyY-71" target="PuATXxOclRqr7p0WLP5T-7" edge="1">
          <mxGeometry relative="1" as="geometry">
            <mxPoint x="783.44" y="493" as="sourcePoint" />
            <mxPoint x="893.44" y="583" as="targetPoint" />
          </mxGeometry>
        </mxCell>
        <mxCell id="PuATXxOclRqr7p0WLP5T-6" value="identifier" style="edgeLabel;resizable=0;html=1;;align=center;verticalAlign=middle;" parent="PuATXxOclRqr7p0WLP5T-5" connectable="0" vertex="1">
          <mxGeometry relative="1" as="geometry" />
        </mxCell>
        <mxCell id="PuATXxOclRqr7p0WLP5T-7" value="abc" style="html=1;whiteSpace=wrap;rounded=1;arcSize=50;" parent="1" vertex="1">
          <mxGeometry x="811.44" y="573" width="110" height="45" as="geometry" />
        </mxCell>
        <mxCell id="PuATXxOclRqr7p0WLP5T-8" value="" style="endArrow=classic;html=1;rounded=0;exitX=1;exitY=0.077;exitDx=0;exitDy=0;entryX=0;entryY=0.5;entryDx=0;entryDy=0;exitPerimeter=0;" parent="1" source="PuATXxOclRqr7p0WLP5T-1" target="PuATXxOclRqr7p0WLP5T-10" edge="1">
          <mxGeometry relative="1" as="geometry">
            <mxPoint x="945" y="1195" as="sourcePoint" />
            <mxPoint x="1067" y="1182" as="targetPoint" />
          </mxGeometry>
        </mxCell>
        <mxCell id="PuATXxOclRqr7p0WLP5T-9" value="expressed date" style="edgeLabel;resizable=0;html=1;;align=center;verticalAlign=middle;" parent="PuATXxOclRqr7p0WLP5T-8" connectable="0" vertex="1">
          <mxGeometry relative="1" as="geometry" />
        </mxCell>
        <mxCell id="PuATXxOclRqr7p0WLP5T-10" value="2013 - 2016" style="html=1;whiteSpace=wrap;rounded=1;arcSize=50;" parent="1" vertex="1">
          <mxGeometry x="1077" y="1140" width="110" height="40" as="geometry" />
        </mxCell>
        <mxCell id="PuATXxOclRqr7p0WLP5T-11" value="" style="endArrow=classic;html=1;rounded=0;exitX=1;exitY=0.5;exitDx=0;exitDy=0;entryX=-0.008;entryY=0.375;entryDx=0;entryDy=0;entryPerimeter=0;" parent="1" source="PuATXxOclRqr7p0WLP5T-1" target="PuATXxOclRqr7p0WLP5T-13" edge="1">
          <mxGeometry relative="1" as="geometry">
            <mxPoint x="927" y="1223" as="sourcePoint" />
            <mxPoint x="1087" y="1252" as="targetPoint" />
          </mxGeometry>
        </mxCell>
        <mxCell id="PuATXxOclRqr7p0WLP5T-12" value="normalized date" style="edgeLabel;resizable=0;html=1;;align=center;verticalAlign=middle;" parent="PuATXxOclRqr7p0WLP5T-11" connectable="0" vertex="1">
          <mxGeometry relative="1" as="geometry" />
        </mxCell>
        <mxCell id="PuATXxOclRqr7p0WLP5T-13" value="2003/01/01-2016/12/31" style="html=1;whiteSpace=wrap;rounded=1;arcSize=50;" parent="1" vertex="1">
          <mxGeometry x="1070.5" y="1222" width="140" height="40" as="geometry" />
        </mxCell>
        <mxCell id="PuATXxOclRqr7p0WLP5T-14" value="" style="endArrow=classic;html=1;rounded=0;exitX=1;exitY=1;exitDx=0;exitDy=0;entryX=0;entryY=0.25;entryDx=0;entryDy=0;" parent="1" source="PuATXxOclRqr7p0WLP5T-1" target="PuATXxOclRqr7p0WLP5T-16" edge="1">
          <mxGeometry relative="1" as="geometry">
            <mxPoint x="947" y="1252" as="sourcePoint" />
            <mxPoint x="1027" y="1322" as="targetPoint" />
          </mxGeometry>
        </mxCell>
        <mxCell id="PuATXxOclRqr7p0WLP5T-15" value="identifier" style="edgeLabel;resizable=0;html=1;;align=center;verticalAlign=middle;" parent="PuATXxOclRqr7p0WLP5T-14" connectable="0" vertex="1">
          <mxGeometry relative="1" as="geometry" />
        </mxCell>
        <mxCell id="PuATXxOclRqr7p0WLP5T-16" value="dfg" style="html=1;whiteSpace=wrap;rounded=1;arcSize=50;" parent="1" vertex="1">
          <mxGeometry x="1070.5" y="1300" width="110" height="35" as="geometry" />
        </mxCell>
        <mxCell id="PuATXxOclRqr7p0WLP5T-17" value="WA 16/6" style="html=1;whiteSpace=wrap;rounded=1;arcSize=50;" parent="1" vertex="1">
          <mxGeometry x="-10" y="1302" width="110" height="40" as="geometry" />
        </mxCell>
        <mxCell id="PuATXxOclRqr7p0WLP5T-19" value="" style="endArrow=classic;html=1;rounded=0;exitX=-0.001;exitY=0.372;exitDx=0;exitDy=0;exitPerimeter=0;" parent="1" source="K3YaIifATm5BKoZFhJyY-1" target="PuATXxOclRqr7p0WLP5T-21" edge="1">
          <mxGeometry relative="1" as="geometry">
            <mxPoint x="396" y="1426" as="sourcePoint" />
            <mxPoint x="86" y="1440" as="targetPoint" />
          </mxGeometry>
        </mxCell>
        <mxCell id="PuATXxOclRqr7p0WLP5T-20" value="record set type" style="edgeLabel;resizable=0;html=1;;align=center;verticalAlign=middle;" parent="PuATXxOclRqr7p0WLP5T-19" connectable="0" vertex="1">
          <mxGeometry relative="1" as="geometry" />
        </mxCell>
        <mxCell id="PuATXxOclRqr7p0WLP5T-21" value="File" style="html=1;whiteSpace=wrap;rounded=1;arcSize=50;" parent="1" vertex="1">
          <mxGeometry x="-10" y="1398" width="110" height="40" as="geometry" />
        </mxCell>
        <mxCell id="PuATXxOclRqr7p0WLP5T-22" value="" style="endArrow=classic;html=1;rounded=0;exitX=0;exitY=0.5;exitDx=0;exitDy=0;entryX=1;entryY=0.5;entryDx=0;entryDy=0;" parent="1" source="K3YaIifATm5BKoZFhJyY-1" target="PuATXxOclRqr7p0WLP5T-24" edge="1">
          <mxGeometry relative="1" as="geometry">
            <mxPoint x="396" y="1442" as="sourcePoint" />
            <mxPoint x="76" y="1510" as="targetPoint" />
          </mxGeometry>
        </mxCell>
        <mxCell id="PuATXxOclRqr7p0WLP5T-23" value="language" style="edgeLabel;resizable=0;html=1;;align=center;verticalAlign=middle;" parent="PuATXxOclRqr7p0WLP5T-22" connectable="0" vertex="1">
          <mxGeometry relative="1" as="geometry" />
        </mxCell>
        <mxCell id="PuATXxOclRqr7p0WLP5T-24" value="English" style="html=1;whiteSpace=wrap;rounded=1;arcSize=50;" parent="1" vertex="1">
          <mxGeometry x="-10" y="1498" width="110" height="40" as="geometry" />
        </mxCell>
        <mxCell id="PuATXxOclRqr7p0WLP5T-26" value="Open" style="html=1;whiteSpace=wrap;rounded=1;arcSize=50;" parent="1" vertex="1">
          <mxGeometry x="-10" y="1598" width="110" height="40" as="geometry" />
        </mxCell>
        <mxCell id="PuATXxOclRqr7p0WLP5T-28" value="1 file" style="html=1;whiteSpace=wrap;rounded=1;arcSize=50;" parent="1" vertex="1">
          <mxGeometry x="240" y="1160" width="125" height="48" as="geometry" />
        </mxCell>
        <mxCell id="PuATXxOclRqr7p0WLP5T-29" value="&lt;span style=&quot;text-align: left;&quot;&gt;London 2012 Olympic and Paralympic Games: Welsh Affairs Committee inquiry into tourism benefits; meetings between Minister for Culture, Welsh Language and Sport and Assembly Sponsored Bodies&lt;/span&gt;" style="html=1;whiteSpace=wrap;rounded=1;arcSize=50;" parent="1" vertex="1">
          <mxGeometry x="-170" y="1160" width="350" height="78" as="geometry" />
        </mxCell>
        <mxCell id="PuATXxOclRqr7p0WLP5T-31" value="" style="endArrow=classic;html=1;rounded=0;entryX=0.622;entryY=1.026;entryDx=0;entryDy=0;exitX=0.272;exitY=-0.033;exitDx=0;exitDy=0;exitPerimeter=0;entryPerimeter=0;" parent="1" source="K3YaIifATm5BKoZFhJyY-1" target="PuATXxOclRqr7p0WLP5T-28" edge="1">
          <mxGeometry relative="1" as="geometry">
            <mxPoint x="480" y="1398" as="sourcePoint" />
            <mxPoint x="320" y="1209" as="targetPoint" />
          </mxGeometry>
        </mxCell>
        <mxCell id="PuATXxOclRqr7p0WLP5T-32" value="record resource extent" style="edgeLabel;resizable=0;html=1;;align=center;verticalAlign=middle;" parent="PuATXxOclRqr7p0WLP5T-31" connectable="0" vertex="1">
          <mxGeometry relative="1" as="geometry" />
        </mxCell>
        <mxCell id="PuATXxOclRqr7p0WLP5T-33" value="" style="endArrow=classic;html=1;rounded=0;exitX=-0.003;exitY=0.943;exitDx=0;exitDy=0;exitPerimeter=0;entryX=1;entryY=0.5;entryDx=0;entryDy=0;" parent="1" source="K3YaIifATm5BKoZFhJyY-2" target="PuATXxOclRqr7p0WLP5T-26" edge="1">
          <mxGeometry relative="1" as="geometry">
            <mxPoint x="424" y="1480" as="sourcePoint" />
            <mxPoint x="120" y="1626" as="targetPoint" />
          </mxGeometry>
        </mxCell>
        <mxCell id="PuATXxOclRqr7p0WLP5T-34" value="conditions of access" style="edgeLabel;resizable=0;html=1;;align=center;verticalAlign=middle;" parent="PuATXxOclRqr7p0WLP5T-33" connectable="0" vertex="1">
          <mxGeometry relative="1" as="geometry">
            <mxPoint x="-14" y="7" as="offset" />
          </mxGeometry>
        </mxCell>
        <mxCell id="PuATXxOclRqr7p0WLP5T-35" value="" style="endArrow=classic;html=1;rounded=0;entryX=0.927;entryY=0.969;entryDx=0;entryDy=0;exitX=0.032;exitY=0.004;exitDx=0;exitDy=0;exitPerimeter=0;entryPerimeter=0;" parent="1" source="K3YaIifATm5BKoZFhJyY-1" target="PuATXxOclRqr7p0WLP5T-29" edge="1">
          <mxGeometry relative="1" as="geometry">
            <mxPoint x="331" y="1380" as="sourcePoint" />
            <mxPoint x="60" y="1208" as="targetPoint" />
          </mxGeometry>
        </mxCell>
        <mxCell id="PuATXxOclRqr7p0WLP5T-36" value="name" style="edgeLabel;resizable=0;html=1;;align=center;verticalAlign=middle;" parent="PuATXxOclRqr7p0WLP5T-35" connectable="0" vertex="1">
          <mxGeometry relative="1" as="geometry" />
        </mxCell>
        <mxCell id="PuATXxOclRqr7p0WLP5T-37" value="" style="endArrow=classic;html=1;rounded=0;entryX=1;entryY=0.5;entryDx=0;entryDy=0;exitX=0;exitY=0.25;exitDx=0;exitDy=0;" parent="1" source="K3YaIifATm5BKoZFhJyY-1" target="PuATXxOclRqr7p0WLP5T-17" edge="1">
          <mxGeometry relative="1" as="geometry">
            <mxPoint x="247" y="1377" as="sourcePoint" />
            <mxPoint x="-50" y="1290" as="targetPoint" />
          </mxGeometry>
        </mxCell>
        <mxCell id="PuATXxOclRqr7p0WLP5T-38" value="identifier" style="edgeLabel;resizable=0;html=1;;align=center;verticalAlign=middle;" parent="PuATXxOclRqr7p0WLP5T-37" connectable="0" vertex="1">
          <mxGeometry relative="1" as="geometry" />
        </mxCell>
        <mxCell id="PuATXxOclRqr7p0WLP5T-41" value="djp - 2005 - 2009" style="swimlane;fontStyle=0;childLayout=stackLayout;horizontal=1;startSize=26;strokeColor=#DDD9C3;strokeWidth=2;fillColor=none;horizontalStack=0;resizeParent=1;resizeParentMax=0;resizeLast=0;collapsible=1;marginBottom=0;whiteSpace=wrap;html=1;" parent="1" vertex="1">
          <mxGeometry x="930" y="1524" width="127" height="52" as="geometry" />
        </mxCell>
        <mxCell id="PuATXxOclRqr7p0WLP5T-42" value="Date" style="text;strokeColor=#DDD9C3;strokeWidth=2;fillColor=#DDD9C3;align=center;verticalAlign=top;spacingLeft=4;spacingRight=4;overflow=hidden;rotatable=0;points=[[0,0.5],[1,0.5]];portConstraint=eastwest;whiteSpace=wrap;html=1;" parent="PuATXxOclRqr7p0WLP5T-41" vertex="1">
          <mxGeometry y="26" width="127" height="26" as="geometry" />
        </mxCell>
        <mxCell id="PuATXxOclRqr7p0WLP5T-43" value="" style="endArrow=classic;html=1;rounded=0;exitX=1;exitY=0.077;exitDx=0;exitDy=0;entryX=0;entryY=0.5;entryDx=0;entryDy=0;exitPerimeter=0;" parent="1" source="PuATXxOclRqr7p0WLP5T-41" target="PuATXxOclRqr7p0WLP5T-45" edge="1">
          <mxGeometry relative="1" as="geometry">
            <mxPoint x="1095" y="1531" as="sourcePoint" />
            <mxPoint x="1217" y="1518" as="targetPoint" />
          </mxGeometry>
        </mxCell>
        <mxCell id="PuATXxOclRqr7p0WLP5T-44" value="expressed date" style="edgeLabel;resizable=0;html=1;;align=center;verticalAlign=middle;" parent="PuATXxOclRqr7p0WLP5T-43" connectable="0" vertex="1">
          <mxGeometry relative="1" as="geometry" />
        </mxCell>
        <mxCell id="PuATXxOclRqr7p0WLP5T-45" value="2005 Jan 01 to 2009 Dec 31&amp;nbsp;" style="html=1;whiteSpace=wrap;rounded=1;arcSize=50;" parent="1" vertex="1">
          <mxGeometry x="1227" y="1476" width="183" height="40" as="geometry" />
        </mxCell>
        <mxCell id="PuATXxOclRqr7p0WLP5T-46" value="" style="endArrow=classic;html=1;rounded=0;exitX=1;exitY=0.5;exitDx=0;exitDy=0;entryX=-0.008;entryY=0.375;entryDx=0;entryDy=0;entryPerimeter=0;" parent="1" source="PuATXxOclRqr7p0WLP5T-41" target="PuATXxOclRqr7p0WLP5T-48" edge="1">
          <mxGeometry relative="1" as="geometry">
            <mxPoint x="1077" y="1559" as="sourcePoint" />
            <mxPoint x="1237" y="1588" as="targetPoint" />
          </mxGeometry>
        </mxCell>
        <mxCell id="PuATXxOclRqr7p0WLP5T-47" value="normalized date" style="edgeLabel;resizable=0;html=1;;align=center;verticalAlign=middle;" parent="PuATXxOclRqr7p0WLP5T-46" connectable="0" vertex="1">
          <mxGeometry relative="1" as="geometry" />
        </mxCell>
        <mxCell id="PuATXxOclRqr7p0WLP5T-48" value="2005/01/01-2009/12/31" style="html=1;whiteSpace=wrap;rounded=1;arcSize=50;" parent="1" vertex="1">
          <mxGeometry x="1220.5" y="1558" width="140" height="40" as="geometry" />
        </mxCell>
        <mxCell id="PuATXxOclRqr7p0WLP5T-49" value="" style="endArrow=classic;html=1;rounded=0;exitX=1;exitY=1;exitDx=0;exitDy=0;entryX=0;entryY=0.25;entryDx=0;entryDy=0;" parent="1" source="PuATXxOclRqr7p0WLP5T-41" target="PuATXxOclRqr7p0WLP5T-51" edge="1">
          <mxGeometry relative="1" as="geometry">
            <mxPoint x="1097" y="1588" as="sourcePoint" />
            <mxPoint x="1177" y="1658" as="targetPoint" />
          </mxGeometry>
        </mxCell>
        <mxCell id="PuATXxOclRqr7p0WLP5T-50" value="identifier" style="edgeLabel;resizable=0;html=1;;align=center;verticalAlign=middle;" parent="PuATXxOclRqr7p0WLP5T-49" connectable="0" vertex="1">
          <mxGeometry relative="1" as="geometry" />
        </mxCell>
        <mxCell id="PuATXxOclRqr7p0WLP5T-51" value="djp" style="html=1;whiteSpace=wrap;rounded=1;arcSize=50;" parent="1" vertex="1">
          <mxGeometry x="1220.5" y="1636" width="110" height="35" as="geometry" />
        </mxCell>
        <mxCell id="PuATXxOclRqr7p0WLP5T-52" value="" style="endArrow=classic;html=1;rounded=0;exitX=0;exitY=0;exitDx=0;exitDy=0;entryX=1.003;entryY=0.931;entryDx=0;entryDy=0;entryPerimeter=0;" parent="1" source="PuATXxOclRqr7p0WLP5T-41" target="K3YaIifATm5BKoZFhJyY-2" edge="1">
          <mxGeometry relative="1" as="geometry">
            <mxPoint x="900" y="1587" as="sourcePoint" />
            <mxPoint x="680" y="1494" as="targetPoint" />
          </mxGeometry>
        </mxCell>
        <mxCell id="PuATXxOclRqr7p0WLP5T-53" value="is or was creation date of most members of" style="edgeLabel;resizable=0;html=1;;align=center;verticalAlign=middle;" parent="PuATXxOclRqr7p0WLP5T-52" connectable="0" vertex="1">
          <mxGeometry relative="1" as="geometry" />
        </mxCell>
        <mxCell id="PuATXxOclRqr7p0WLP5T-54" value="" style="endArrow=classic;html=1;rounded=0;exitX=1;exitY=0;exitDx=0;exitDy=0;entryX=0.011;entryY=0.682;entryDx=0;entryDy=0;entryPerimeter=0;" parent="1" source="K3YaIifATm5BKoZFhJyY-20" target="PuATXxOclRqr7p0WLP5T-56" edge="1">
          <mxGeometry relative="1" as="geometry">
            <mxPoint x="1130" y="230" as="sourcePoint" />
            <mxPoint x="1300" y="180" as="targetPoint" />
          </mxGeometry>
        </mxCell>
        <mxCell id="PuATXxOclRqr7p0WLP5T-55" value="identifier" style="edgeLabel;resizable=0;html=1;;align=center;verticalAlign=middle;" parent="PuATXxOclRqr7p0WLP5T-54" connectable="0" vertex="1">
          <mxGeometry relative="1" as="geometry" />
        </mxCell>
        <mxCell id="PuATXxOclRqr7p0WLP5T-56" value="66" style="html=1;whiteSpace=wrap;rounded=1;arcSize=50;" parent="1" vertex="1">
          <mxGeometry x="1267" y="150" width="110" height="45" as="geometry" />
        </mxCell>
        <mxCell id="PuATXxOclRqr7p0WLP5T-57" value="" style="endArrow=classic;html=1;rounded=0;exitX=1.016;exitY=0.06;exitDx=0;exitDy=0;entryX=0;entryY=0.5;entryDx=0;entryDy=0;exitPerimeter=0;" parent="1" source="K3YaIifATm5BKoZFhJyY-21" target="PuATXxOclRqr7p0WLP5T-59" edge="1">
          <mxGeometry relative="1" as="geometry">
            <mxPoint x="1217" y="302" as="sourcePoint" />
            <mxPoint x="1454" y="260" as="targetPoint" />
          </mxGeometry>
        </mxCell>
        <mxCell id="PuATXxOclRqr7p0WLP5T-58" value="has or had holder" style="edgeLabel;resizable=0;html=1;;align=center;verticalAlign=middle;" parent="PuATXxOclRqr7p0WLP5T-57" connectable="0" vertex="1">
          <mxGeometry relative="1" as="geometry" />
        </mxCell>
        <mxCell id="PuATXxOclRqr7p0WLP5T-59" value="Kew" style="swimlane;fontStyle=0;childLayout=stackLayout;horizontal=1;startSize=26;strokeColor=#FAA0A0;strokeWidth=2;fillColor=none;horizontalStack=0;resizeParent=1;resizeParentMax=0;resizeLast=0;collapsible=1;marginBottom=0;whiteSpace=wrap;html=1;" parent="1" vertex="1">
          <mxGeometry x="1287" y="256" width="90" height="52" as="geometry" />
        </mxCell>
        <mxCell id="PuATXxOclRqr7p0WLP5T-60" value="Place" style="text;strokeColor=#FAA0A0;strokeWidth=2;fillColor=#FAA0A0;align=center;verticalAlign=top;spacingLeft=4;spacingRight=4;overflow=hidden;rotatable=0;points=[[0,0.5],[1,0.5]];portConstraint=eastwest;whiteSpace=wrap;html=1;" parent="PuATXxOclRqr7p0WLP5T-59" vertex="1">
          <mxGeometry y="26" width="90" height="26" as="geometry" />
        </mxCell>
        <mxCell id="PuATXxOclRqr7p0WLP5T-61" value="" style="endArrow=classic;html=1;rounded=0;exitX=1;exitY=0.25;exitDx=0;exitDy=0;entryX=0;entryY=0.5;entryDx=0;entryDy=0;" parent="1" source="PuATXxOclRqr7p0WLP5T-59" target="PuATXxOclRqr7p0WLP5T-63" edge="1">
          <mxGeometry relative="1" as="geometry">
            <mxPoint x="1390.5" y="256" as="sourcePoint" />
            <mxPoint x="1510" y="220" as="targetPoint" />
          </mxGeometry>
        </mxCell>
        <mxCell id="PuATXxOclRqr7p0WLP5T-62" value="identifier" style="edgeLabel;resizable=0;html=1;;align=center;verticalAlign=middle;" parent="PuATXxOclRqr7p0WLP5T-61" connectable="0" vertex="1">
          <mxGeometry relative="1" as="geometry" />
        </mxCell>
        <mxCell id="PuATXxOclRqr7p0WLP5T-63" value="wd:Q1740301" style="html=1;whiteSpace=wrap;rounded=1;arcSize=50;" parent="1" vertex="1">
          <mxGeometry x="1520" y="200" width="110" height="45" as="geometry" />
        </mxCell>
        <mxCell id="PuATXxOclRqr7p0WLP5T-64" value="" style="endArrow=classic;html=1;rounded=0;exitX=1;exitY=0.5;exitDx=0;exitDy=0;entryX=0;entryY=0.5;entryDx=0;entryDy=0;" parent="1" source="PuATXxOclRqr7p0WLP5T-60" target="PuATXxOclRqr7p0WLP5T-66" edge="1">
          <mxGeometry relative="1" as="geometry">
            <mxPoint x="1628.5" y="437" as="sourcePoint" />
            <mxPoint x="1520.000000000001" y="308.3611111111113" as="targetPoint" />
          </mxGeometry>
        </mxCell>
        <mxCell id="PuATXxOclRqr7p0WLP5T-65" value="name" style="edgeLabel;resizable=0;html=1;;align=center;verticalAlign=middle;" parent="PuATXxOclRqr7p0WLP5T-64" connectable="0" vertex="1">
          <mxGeometry relative="1" as="geometry" />
        </mxCell>
        <mxCell id="PuATXxOclRqr7p0WLP5T-66" value="Kew" style="html=1;whiteSpace=wrap;rounded=1;arcSize=50;" parent="1" vertex="1">
          <mxGeometry x="1508" y="301" width="110" height="45" as="geometry" />
        </mxCell>
        <mxCell id="PuATXxOclRqr7p0WLP5T-67" value="" style="endArrow=classic;html=1;rounded=0;exitX=1.005;exitY=1.097;exitDx=0;exitDy=0;exitPerimeter=0;entryX=0;entryY=0.25;entryDx=0;entryDy=0;" parent="1" source="K3YaIifATm5BKoZFhJyY-21" target="PuATXxOclRqr7p0WLP5T-69" edge="1">
          <mxGeometry relative="1" as="geometry">
            <mxPoint x="1090" y="350" as="sourcePoint" />
            <mxPoint x="1170" y="363" as="targetPoint" />
          </mxGeometry>
        </mxCell>
        <mxCell id="PuATXxOclRqr7p0WLP5T-68" value="name" style="edgeLabel;resizable=0;html=1;;align=center;verticalAlign=middle;" parent="PuATXxOclRqr7p0WLP5T-67" connectable="0" vertex="1">
          <mxGeometry relative="1" as="geometry" />
        </mxCell>
        <mxCell id="PuATXxOclRqr7p0WLP5T-69" value="The National Archives" style="html=1;whiteSpace=wrap;rounded=1;arcSize=50;" parent="1" vertex="1">
          <mxGeometry x="1240.5" y="370" width="133.5" height="45" as="geometry" />
        </mxCell>
        <mxCell id="PuATXxOclRqr7p0WLP5T-71" value="" style="endArrow=classic;html=1;rounded=0;entryX=-0.007;entryY=0.431;entryDx=0;entryDy=0;entryPerimeter=0;" parent="1" source="K3YaIifATm5BKoZFhJyY-9" target="PuATXxOclRqr7p0WLP5T-73" edge="1">
          <mxGeometry relative="1" as="geometry">
            <mxPoint x="1388.5" y="583" as="sourcePoint" />
            <mxPoint x="1648" y="500" as="targetPoint" />
          </mxGeometry>
        </mxCell>
        <mxCell id="PuATXxOclRqr7p0WLP5T-72" value="documented by" style="edgeLabel;resizable=0;html=1;;align=center;verticalAlign=middle;" parent="PuATXxOclRqr7p0WLP5T-71" connectable="0" vertex="1">
          <mxGeometry relative="1" as="geometry" />
        </mxCell>
        <mxCell id="PuATXxOclRqr7p0WLP5T-73" value="LOC 4 - London Organising Committee of the Olympic and Paralympic Games: Policies and Processes: Records relating to the Competitions and the Ceremonies" style="swimlane;fontStyle=0;childLayout=stackLayout;horizontal=1;startSize=56;strokeColor=#DAEEF3;fillColor=none;strokeWidth=3;horizontalStack=0;resizeParent=1;resizeParentMax=0;resizeLast=0;collapsible=1;marginBottom=0;whiteSpace=wrap;html=1;" parent="1" vertex="1">
          <mxGeometry x="1515" y="453" width="325" height="82" as="geometry" />
        </mxCell>
        <mxCell id="PuATXxOclRqr7p0WLP5T-74" value="Record Set" style="text;strokeColor=#DAEEF3;strokeWidth=3;fillColor=none;align=center;verticalAlign=top;spacingLeft=4;spacingRight=4;overflow=hidden;rotatable=0;points=[[0,0.5],[1,0.5]];portConstraint=eastwest;whiteSpace=wrap;html=1;" parent="PuATXxOclRqr7p0WLP5T-73" vertex="1">
          <mxGeometry y="56" width="325" height="26" as="geometry" />
        </mxCell>
        <mxCell id="PuATXxOclRqr7p0WLP5T-75" value="&lt;span style=&quot;text-align: left;&quot;&gt;&lt;font style=&quot;font-size: 12px;&quot;&gt;ACE 1 - Arts Council England: Vision 2012 Team , Cultural Olympiad national funding for the London 2012 Olympics: digital records file plan&lt;/font&gt;&lt;/span&gt;" style="swimlane;fontStyle=0;childLayout=stackLayout;horizontal=1;startSize=56;strokeColor=#DAEEF3;fillColor=none;strokeWidth=3;horizontalStack=0;resizeParent=1;resizeParentMax=0;resizeLast=0;collapsible=1;marginBottom=0;whiteSpace=wrap;html=1;" parent="1" vertex="1">
          <mxGeometry x="1618" y="594" width="305" height="82" as="geometry" />
        </mxCell>
        <mxCell id="PuATXxOclRqr7p0WLP5T-76" value="Record Set" style="text;strokeColor=#DAEEF3;strokeWidth=3;fillColor=none;align=center;verticalAlign=top;spacingLeft=4;spacingRight=4;overflow=hidden;rotatable=0;points=[[0,0.5],[1,0.5]];portConstraint=eastwest;whiteSpace=wrap;html=1;" parent="PuATXxOclRqr7p0WLP5T-75" vertex="1">
          <mxGeometry y="56" width="305" height="26" as="geometry" />
        </mxCell>
        <mxCell id="PuATXxOclRqr7p0WLP5T-77" value="" style="endArrow=classic;html=1;rounded=0;exitX=1.008;exitY=0.368;exitDx=0;exitDy=0;entryX=-0.009;entryY=0.384;entryDx=0;entryDy=0;entryPerimeter=0;exitPerimeter=0;" parent="1" source="K3YaIifATm5BKoZFhJyY-9" target="PuATXxOclRqr7p0WLP5T-75" edge="1">
          <mxGeometry relative="1" as="geometry">
            <mxPoint x="1438" y="652" as="sourcePoint" />
            <mxPoint x="1598" y="566" as="targetPoint" />
          </mxGeometry>
        </mxCell>
        <mxCell id="PuATXxOclRqr7p0WLP5T-78" value="documented by" style="edgeLabel;resizable=0;html=1;;align=center;verticalAlign=middle;" parent="PuATXxOclRqr7p0WLP5T-77" connectable="0" vertex="1">
          <mxGeometry relative="1" as="geometry" />
        </mxCell>
        <mxCell id="PuATXxOclRqr7p0WLP5T-80" value="" style="endArrow=classic;html=1;rounded=0;exitX=0.424;exitY=1.095;exitDx=0;exitDy=0;exitPerimeter=0;" parent="1" source="K3YaIifATm5BKoZFhJyY-10" target="PuATXxOclRqr7p0WLP5T-82" edge="1">
          <mxGeometry relative="1" as="geometry">
            <mxPoint x="1348" y="752" as="sourcePoint" />
            <mxPoint x="1358" y="740" as="targetPoint" />
          </mxGeometry>
        </mxCell>
        <mxCell id="PuATXxOclRqr7p0WLP5T-81" value="identifier" style="edgeLabel;resizable=0;html=1;;align=center;verticalAlign=middle;" parent="PuATXxOclRqr7p0WLP5T-80" connectable="0" vertex="1">
          <mxGeometry relative="1" as="geometry" />
        </mxCell>
        <mxCell id="PuATXxOclRqr7p0WLP5T-82" value="L98" style="html=1;whiteSpace=wrap;rounded=1;arcSize=50;" parent="1" vertex="1">
          <mxGeometry x="1338" y="730" width="110" height="45" as="geometry" />
        </mxCell>
        <mxCell id="PuATXxOclRqr7p0WLP5T-83" value="" style="endArrow=classic;html=1;rounded=0;exitX=0.998;exitY=1.149;exitDx=0;exitDy=0;exitPerimeter=0;entryX=0.088;entryY=0.102;entryDx=0;entryDy=0;entryPerimeter=0;" parent="1" source="K3YaIifATm5BKoZFhJyY-10" target="PuATXxOclRqr7p0WLP5T-85" edge="1">
          <mxGeometry relative="1" as="geometry">
            <mxPoint x="1468" y="660" as="sourcePoint" />
            <mxPoint x="1568" y="740" as="targetPoint" />
          </mxGeometry>
        </mxCell>
        <mxCell id="PuATXxOclRqr7p0WLP5T-84" value="name" style="edgeLabel;resizable=0;html=1;;align=center;verticalAlign=middle;" parent="PuATXxOclRqr7p0WLP5T-83" connectable="0" vertex="1">
          <mxGeometry relative="1" as="geometry" />
        </mxCell>
        <mxCell id="PuATXxOclRqr7p0WLP5T-85" value="Organisation of the London 2012 Olympic and Paralympic Games" style="html=1;whiteSpace=wrap;rounded=1;arcSize=50;" parent="1" vertex="1">
          <mxGeometry x="1548" y="730" width="210" height="45" as="geometry" />
        </mxCell>
        <mxCell id="PuATXxOclRqr7p0WLP5T-86" value="" style="endArrow=classic;html=1;rounded=0;exitX=0.129;exitY=-0.05;exitDx=0;exitDy=0;exitPerimeter=0;" parent="1" source="K3YaIifATm5BKoZFhJyY-31" target="PuATXxOclRqr7p0WLP5T-88" edge="1">
          <mxGeometry relative="1" as="geometry">
            <mxPoint x="332" y="-45" as="sourcePoint" />
            <mxPoint x="150" y="-145" as="targetPoint" />
          </mxGeometry>
        </mxCell>
        <mxCell id="PuATXxOclRqr7p0WLP5T-87" value="name" style="edgeLabel;resizable=0;html=1;;align=center;verticalAlign=middle;" parent="PuATXxOclRqr7p0WLP5T-86" connectable="0" vertex="1">
          <mxGeometry relative="1" as="geometry" />
        </mxCell>
        <mxCell id="PuATXxOclRqr7p0WLP5T-88" value="National Assembly for Wales" style="html=1;whiteSpace=wrap;rounded=1;arcSize=50;" parent="1" vertex="1">
          <mxGeometry x="60" y="-170" width="195" height="50" as="geometry" />
        </mxCell>
        <mxCell id="PuATXxOclRqr7p0WLP5T-89" value="" style="endArrow=classic;html=1;rounded=0;exitX=0.5;exitY=0;exitDx=0;exitDy=0;" parent="1" source="K3YaIifATm5BKoZFhJyY-31" target="PuATXxOclRqr7p0WLP5T-91" edge="1">
          <mxGeometry relative="1" as="geometry">
            <mxPoint x="460" y="-65" as="sourcePoint" />
            <mxPoint x="470" y="-135" as="targetPoint" />
          </mxGeometry>
        </mxCell>
        <mxCell id="PuATXxOclRqr7p0WLP5T-90" value="identifier" style="edgeLabel;resizable=0;html=1;;align=center;verticalAlign=middle;" parent="PuATXxOclRqr7p0WLP5T-89" connectable="0" vertex="1">
          <mxGeometry relative="1" as="geometry" />
        </mxCell>
        <mxCell id="PuATXxOclRqr7p0WLP5T-91" value="GB/NNAF/C284400" style="html=1;whiteSpace=wrap;rounded=1;arcSize=50;" parent="1" vertex="1">
          <mxGeometry x="325" y="-170" width="135" height="50" as="geometry" />
        </mxCell>
        <mxCell id="PuATXxOclRqr7p0WLP5T-92" value="GB/NNAF/C287343&amp;nbsp;" style="html=1;whiteSpace=wrap;rounded=1;arcSize=50;" parent="1" vertex="1">
          <mxGeometry x="580" y="-170" width="150" height="50" as="geometry" />
        </mxCell>
        <mxCell id="PuATXxOclRqr7p0WLP5T-93" value="Welsh Assembly Government" style="html=1;whiteSpace=wrap;rounded=1;arcSize=50;" parent="1" vertex="1">
          <mxGeometry x="800" y="-170" width="175" height="50" as="geometry" />
        </mxCell>
        <mxCell id="PuATXxOclRqr7p0WLP5T-94" value="" style="endArrow=classic;html=1;rounded=0;exitX=0.547;exitY=-0.015;exitDx=0;exitDy=0;exitPerimeter=0;entryX=0.5;entryY=1;entryDx=0;entryDy=0;" parent="1" source="K3YaIifATm5BKoZFhJyY-24" target="PuATXxOclRqr7p0WLP5T-92" edge="1">
          <mxGeometry relative="1" as="geometry">
            <mxPoint x="520" y="-50" as="sourcePoint" />
            <mxPoint x="541" y="-125" as="targetPoint" />
          </mxGeometry>
        </mxCell>
        <mxCell id="PuATXxOclRqr7p0WLP5T-95" value="identifier" style="edgeLabel;resizable=0;html=1;;align=center;verticalAlign=middle;" parent="PuATXxOclRqr7p0WLP5T-94" connectable="0" vertex="1">
          <mxGeometry relative="1" as="geometry" />
        </mxCell>
        <mxCell id="PuATXxOclRqr7p0WLP5T-96" value="" style="endArrow=classic;html=1;rounded=0;exitX=0.858;exitY=-0.003;exitDx=0;exitDy=0;exitPerimeter=0;entryX=0.297;entryY=1.022;entryDx=0;entryDy=0;entryPerimeter=0;" parent="1" source="K3YaIifATm5BKoZFhJyY-24" target="PuATXxOclRqr7p0WLP5T-93" edge="1">
          <mxGeometry relative="1" as="geometry">
            <mxPoint x="902" y="7" as="sourcePoint" />
            <mxPoint x="800" y="-65" as="targetPoint" />
          </mxGeometry>
        </mxCell>
        <mxCell id="PuATXxOclRqr7p0WLP5T-97" value="name" style="edgeLabel;resizable=0;html=1;;align=center;verticalAlign=middle;" parent="PuATXxOclRqr7p0WLP5T-96" connectable="0" vertex="1">
          <mxGeometry relative="1" as="geometry" />
        </mxCell>
        <mxCell id="PuATXxOclRqr7p0WLP5T-98" value="GB/NNAF/C287344&amp;nbsp;" style="html=1;whiteSpace=wrap;rounded=1;arcSize=50;" parent="1" vertex="1">
          <mxGeometry x="1041.75" y="-150" width="150" height="50" as="geometry" />
        </mxCell>
        <mxCell id="PuATXxOclRqr7p0WLP5T-99" value="" style="endArrow=classic;html=1;rounded=0;entryX=0.053;entryY=0.906;entryDx=0;entryDy=0;entryPerimeter=0;exitX=0.696;exitY=0;exitDx=0;exitDy=0;exitPerimeter=0;" parent="1" source="K3YaIifATm5BKoZFhJyY-22" target="PuATXxOclRqr7p0WLP5T-98" edge="1">
          <mxGeometry relative="1" as="geometry">
            <mxPoint x="899" y="70" as="sourcePoint" />
            <mxPoint x="880" y="-4" as="targetPoint" />
          </mxGeometry>
        </mxCell>
        <mxCell id="PuATXxOclRqr7p0WLP5T-100" value="identifier" style="edgeLabel;resizable=0;html=1;;align=center;verticalAlign=middle;" parent="PuATXxOclRqr7p0WLP5T-99" connectable="0" vertex="1">
          <mxGeometry relative="1" as="geometry" />
        </mxCell>
        <mxCell id="PuATXxOclRqr7p0WLP5T-101" value="Welsh Government" style="html=1;whiteSpace=wrap;rounded=1;arcSize=50;" parent="1" vertex="1">
          <mxGeometry x="1191.75" y="-70" width="175" height="50" as="geometry" />
        </mxCell>
        <mxCell id="PuATXxOclRqr7p0WLP5T-102" value="" style="endArrow=classic;html=1;rounded=0;exitX=1;exitY=0;exitDx=0;exitDy=0;entryX=0;entryY=0.5;entryDx=0;entryDy=0;" parent="1" source="K3YaIifATm5BKoZFhJyY-22" target="PuATXxOclRqr7p0WLP5T-101" edge="1">
          <mxGeometry relative="1" as="geometry">
            <mxPoint x="1082.6100000000001" y="-9.7199999999998" as="sourcePoint" />
            <mxPoint x="1119.31" y="-71" as="targetPoint" />
          </mxGeometry>
        </mxCell>
        <mxCell id="PuATXxOclRqr7p0WLP5T-103" value="name" style="edgeLabel;resizable=0;html=1;;align=center;verticalAlign=middle;" parent="PuATXxOclRqr7p0WLP5T-102" connectable="0" vertex="1">
          <mxGeometry relative="1" as="geometry" />
        </mxCell>
        <mxCell id="PuATXxOclRqr7p0WLP5T-104" value="fds - 12th May 2011" style="swimlane;fontStyle=0;childLayout=stackLayout;horizontal=1;startSize=26;strokeColor=#DDD9C3;strokeWidth=2;fillColor=none;horizontalStack=0;resizeParent=1;resizeParentMax=0;resizeLast=0;collapsible=1;marginBottom=0;whiteSpace=wrap;html=1;" parent="1" vertex="1">
          <mxGeometry x="1270" y="40" width="149.5" height="52" as="geometry" />
        </mxCell>
        <mxCell id="PuATXxOclRqr7p0WLP5T-105" value="Date" style="text;strokeColor=#DDD9C3;strokeWidth=2;fillColor=#DDD9C3;align=center;verticalAlign=top;spacingLeft=4;spacingRight=4;overflow=hidden;rotatable=0;points=[[0,0.5],[1,0.5]];portConstraint=eastwest;whiteSpace=wrap;html=1;" parent="PuATXxOclRqr7p0WLP5T-104" vertex="1">
          <mxGeometry y="26" width="149.5" height="26" as="geometry" />
        </mxCell>
        <mxCell id="PuATXxOclRqr7p0WLP5T-106" value="" style="endArrow=classic;html=1;rounded=0;entryX=1.011;entryY=0.065;entryDx=0;entryDy=0;entryPerimeter=0;exitX=0;exitY=0.5;exitDx=0;exitDy=0;" parent="1" source="PuATXxOclRqr7p0WLP5T-104" target="K3YaIifATm5BKoZFhJyY-23" edge="1">
          <mxGeometry relative="1" as="geometry">
            <mxPoint x="1240" y="70" as="sourcePoint" />
            <mxPoint x="970" y="-20" as="targetPoint" />
          </mxGeometry>
        </mxCell>
        <mxCell id="PuATXxOclRqr7p0WLP5T-107" value="is beginning date of" style="edgeLabel;resizable=0;html=1;;align=center;verticalAlign=middle;" parent="PuATXxOclRqr7p0WLP5T-106" connectable="0" vertex="1">
          <mxGeometry relative="1" as="geometry" />
        </mxCell>
        <mxCell id="PuATXxOclRqr7p0WLP5T-108" value="" style="endArrow=classic;html=1;rounded=0;exitX=0.833;exitY=-0.004;exitDx=0;exitDy=0;exitPerimeter=0;" parent="1" source="PuATXxOclRqr7p0WLP5T-104" target="PuATXxOclRqr7p0WLP5T-110" edge="1">
          <mxGeometry relative="1" as="geometry">
            <mxPoint x="1490" y="23" as="sourcePoint" />
            <mxPoint x="1690.44" y="-50" as="targetPoint" />
          </mxGeometry>
        </mxCell>
        <mxCell id="PuATXxOclRqr7p0WLP5T-109" value="expressed date" style="edgeLabel;resizable=0;html=1;;align=center;verticalAlign=middle;" parent="PuATXxOclRqr7p0WLP5T-108" connectable="0" vertex="1">
          <mxGeometry relative="1" as="geometry" />
        </mxCell>
        <mxCell id="PuATXxOclRqr7p0WLP5T-110" value="12th May 2011" style="html=1;whiteSpace=wrap;rounded=1;arcSize=50;" parent="1" vertex="1">
          <mxGeometry x="1500" y="-80" width="110" height="45" as="geometry" />
        </mxCell>
        <mxCell id="PuATXxOclRqr7p0WLP5T-111" value="" style="endArrow=classic;html=1;rounded=0;exitX=1;exitY=0.25;exitDx=0;exitDy=0;entryX=0;entryY=0.5;entryDx=0;entryDy=0;" parent="1" source="PuATXxOclRqr7p0WLP5T-104" target="PuATXxOclRqr7p0WLP5T-113" edge="1">
          <mxGeometry relative="1" as="geometry">
            <mxPoint x="1490" y="49" as="sourcePoint" />
            <mxPoint x="1640.44" y="110" as="targetPoint" />
          </mxGeometry>
        </mxCell>
        <mxCell id="PuATXxOclRqr7p0WLP5T-112" value="normalized date" style="edgeLabel;resizable=0;html=1;;align=center;verticalAlign=middle;" parent="PuATXxOclRqr7p0WLP5T-111" connectable="0" vertex="1">
          <mxGeometry relative="1" as="geometry" />
        </mxCell>
        <mxCell id="PuATXxOclRqr7p0WLP5T-113" value="2011-05-12" style="html=1;whiteSpace=wrap;rounded=1;arcSize=50;" parent="1" vertex="1">
          <mxGeometry x="1618" y="-5" width="110" height="45" as="geometry" />
        </mxCell>
        <mxCell id="PuATXxOclRqr7p0WLP5T-114" value="" style="endArrow=classic;html=1;rounded=0;exitX=1;exitY=0.75;exitDx=0;exitDy=0;" parent="1" source="PuATXxOclRqr7p0WLP5T-104" target="PuATXxOclRqr7p0WLP5T-116" edge="1">
          <mxGeometry relative="1" as="geometry">
            <mxPoint x="1448" y="63" as="sourcePoint" />
            <mxPoint x="1540.44" y="160" as="targetPoint" />
          </mxGeometry>
        </mxCell>
        <mxCell id="PuATXxOclRqr7p0WLP5T-115" value="identifier" style="edgeLabel;resizable=0;html=1;;align=center;verticalAlign=middle;" parent="PuATXxOclRqr7p0WLP5T-114" connectable="0" vertex="1">
          <mxGeometry relative="1" as="geometry" />
        </mxCell>
        <mxCell id="PuATXxOclRqr7p0WLP5T-116" value="fds" style="html=1;whiteSpace=wrap;rounded=1;arcSize=50;" parent="1" vertex="1">
          <mxGeometry x="1570" y="90" width="110" height="45" as="geometry" />
        </mxCell>
        <mxCell id="PuATXxOclRqr7p0WLP5T-117" value="WA 16/QX/Z" style="html=1;whiteSpace=wrap;rounded=1;arcSize=50;" parent="1" vertex="1">
          <mxGeometry x="1402.25" y="1194.5" width="110" height="40" as="geometry" />
        </mxCell>
        <mxCell id="PuATXxOclRqr7p0WLP5T-121" value="" style="endArrow=classic;html=1;rounded=0;entryX=0.5;entryY=1;entryDx=0;entryDy=0;" parent="1" target="PuATXxOclRqr7p0WLP5T-123" edge="1">
          <mxGeometry relative="1" as="geometry">
            <mxPoint x="1555" y="1020" as="sourcePoint" />
            <mxPoint x="1567.75" y="1404.5" as="targetPoint" />
          </mxGeometry>
        </mxCell>
        <mxCell id="PuATXxOclRqr7p0WLP5T-122" value="language" style="edgeLabel;resizable=0;html=1;;align=center;verticalAlign=middle;" parent="PuATXxOclRqr7p0WLP5T-121" connectable="0" vertex="1">
          <mxGeometry relative="1" as="geometry" />
        </mxCell>
        <mxCell id="PuATXxOclRqr7p0WLP5T-123" value="English" style="html=1;whiteSpace=wrap;rounded=1;arcSize=50;" parent="1" vertex="1">
          <mxGeometry x="1466.48" y="875.5" width="110" height="40" as="geometry" />
        </mxCell>
        <mxCell id="PuATXxOclRqr7p0WLP5T-124" value="Open" style="html=1;whiteSpace=wrap;rounded=1;arcSize=50;" parent="1" vertex="1">
          <mxGeometry x="1595.98" y="1189.5" width="110" height="40" as="geometry" />
        </mxCell>
        <mxCell id="PuATXxOclRqr7p0WLP5T-126" value="&lt;span style=&quot;text-align: left;&quot;&gt;UKWO Programme Board 25_08_11- Papers 1 from S Krouwel 20110822.msg&lt;/span&gt;" style="html=1;whiteSpace=wrap;rounded=1;arcSize=50;" parent="1" vertex="1">
          <mxGeometry x="1942.38" y="1250.5" width="310" height="60" as="geometry" />
        </mxCell>
        <mxCell id="PuATXxOclRqr7p0WLP5T-128" value="" style="endArrow=classic;html=1;rounded=0;entryX=0.5;entryY=0;entryDx=0;entryDy=0;exitX=0.721;exitY=1.096;exitDx=0;exitDy=0;exitPerimeter=0;" parent="1" source="K3YaIifATm5BKoZFhJyY-6" target="PuATXxOclRqr7p0WLP5T-124" edge="1">
          <mxGeometry relative="1" as="geometry">
            <mxPoint x="1615.98" y="1169.5" as="sourcePoint" />
            <mxPoint x="1725.98" y="1615.5" as="targetPoint" />
          </mxGeometry>
        </mxCell>
        <mxCell id="PuATXxOclRqr7p0WLP5T-129" value="conditions of access" style="edgeLabel;resizable=0;html=1;;align=center;verticalAlign=middle;" parent="PuATXxOclRqr7p0WLP5T-128" connectable="0" vertex="1">
          <mxGeometry relative="1" as="geometry">
            <mxPoint x="-14" y="7" as="offset" />
          </mxGeometry>
        </mxCell>
        <mxCell id="PuATXxOclRqr7p0WLP5T-130" value="" style="endArrow=classic;html=1;rounded=0;entryX=0.068;entryY=-0.008;entryDx=0;entryDy=0;exitX=0.996;exitY=1.013;exitDx=0;exitDy=0;exitPerimeter=0;entryPerimeter=0;" parent="1" source="K3YaIifATm5BKoZFhJyY-6" target="PuATXxOclRqr7p0WLP5T-126" edge="1">
          <mxGeometry relative="1" as="geometry">
            <mxPoint x="1613.98" y="1197.92" as="sourcePoint" />
            <mxPoint x="1716.4299999999998" y="1083.5019999999995" as="targetPoint" />
          </mxGeometry>
        </mxCell>
        <mxCell id="PuATXxOclRqr7p0WLP5T-131" value="name" style="edgeLabel;resizable=0;html=1;;align=center;verticalAlign=middle;" parent="PuATXxOclRqr7p0WLP5T-130" connectable="0" vertex="1">
          <mxGeometry relative="1" as="geometry" />
        </mxCell>
        <mxCell id="PuATXxOclRqr7p0WLP5T-132" value="" style="endArrow=classic;html=1;rounded=0;exitX=0.366;exitY=1.077;exitDx=0;exitDy=0;exitPerimeter=0;entryX=0.545;entryY=-0.048;entryDx=0;entryDy=0;entryPerimeter=0;" parent="1" source="K3YaIifATm5BKoZFhJyY-6" target="PuATXxOclRqr7p0WLP5T-117" edge="1">
          <mxGeometry relative="1" as="geometry">
            <mxPoint x="1565.9800000000002" y="1249.802" as="sourcePoint" />
            <mxPoint x="1525.98" y="1169.5" as="targetPoint" />
          </mxGeometry>
        </mxCell>
        <mxCell id="PuATXxOclRqr7p0WLP5T-133" value="identifier" style="edgeLabel;resizable=0;html=1;;align=center;verticalAlign=middle;" parent="PuATXxOclRqr7p0WLP5T-132" connectable="0" vertex="1">
          <mxGeometry relative="1" as="geometry" />
        </mxCell>
        <mxCell id="PuATXxOclRqr7p0WLP5T-135" value="" style="endArrow=classic;html=1;rounded=0;exitX=0.207;exitY=-0.046;exitDx=0;exitDy=0;exitPerimeter=0;entryX=0.585;entryY=1.038;entryDx=0;entryDy=0;entryPerimeter=0;" parent="1" source="K3YaIifATm5BKoZFhJyY-5" target="PuATXxOclRqr7p0WLP5T-137" edge="1">
          <mxGeometry relative="1" as="geometry">
            <mxPoint x="1321.75" y="924.5" as="sourcePoint" />
            <mxPoint x="1251.75" y="824.5" as="targetPoint" />
          </mxGeometry>
        </mxCell>
        <mxCell id="PuATXxOclRqr7p0WLP5T-136" value="record resource extent" style="edgeLabel;resizable=0;html=1;;align=center;verticalAlign=middle;" parent="PuATXxOclRqr7p0WLP5T-135" connectable="0" vertex="1">
          <mxGeometry relative="1" as="geometry" />
        </mxCell>
        <mxCell id="PuATXxOclRqr7p0WLP5T-137" value="1 digital file" style="html=1;whiteSpace=wrap;rounded=1;arcSize=50;" parent="1" vertex="1">
          <mxGeometry x="1263.5" y="875.5" width="110" height="45" as="geometry" />
        </mxCell>
        <mxCell id="PuATXxOclRqr7p0WLP5T-138" value="" style="endArrow=classic;html=1;rounded=0;exitX=0.562;exitY=-0.067;exitDx=0;exitDy=0;exitPerimeter=0;" parent="1" source="K3YaIifATm5BKoZFhJyY-13" target="PuATXxOclRqr7p0WLP5T-140" edge="1">
          <mxGeometry relative="1" as="geometry">
            <mxPoint x="2266.4" y="861" as="sourcePoint" />
            <mxPoint x="2116.4" y="854" as="targetPoint" />
          </mxGeometry>
        </mxCell>
        <mxCell id="PuATXxOclRqr7p0WLP5T-139" value="instantiation extent" style="edgeLabel;resizable=0;html=1;;align=center;verticalAlign=middle;" parent="PuATXxOclRqr7p0WLP5T-138" connectable="0" vertex="1">
          <mxGeometry relative="1" as="geometry" />
        </mxCell>
        <mxCell id="PuATXxOclRqr7p0WLP5T-140" value="Approximate size 1 MB" style="html=1;whiteSpace=wrap;rounded=1;arcSize=50;" parent="1" vertex="1">
          <mxGeometry x="2201.4" y="881" width="145" height="42" as="geometry" />
        </mxCell>
        <mxCell id="PuATXxOclRqr7p0WLP5T-141" value="" style="endArrow=classic;html=1;rounded=0;exitX=1;exitY=0.5;exitDx=0;exitDy=0;entryX=0;entryY=0.5;entryDx=0;entryDy=0;" parent="1" source="K3YaIifATm5BKoZFhJyY-13" target="PuATXxOclRqr7p0WLP5T-143" edge="1">
          <mxGeometry relative="1" as="geometry">
            <mxPoint x="2193.15" y="1015.5" as="sourcePoint" />
            <mxPoint x="2288.15" y="965.5" as="targetPoint" />
          </mxGeometry>
        </mxCell>
        <mxCell id="PuATXxOclRqr7p0WLP5T-142" value="conditions of access" style="edgeLabel;resizable=0;html=1;;align=center;verticalAlign=middle;" parent="PuATXxOclRqr7p0WLP5T-141" connectable="0" vertex="1">
          <mxGeometry relative="1" as="geometry">
            <mxPoint x="-14" y="1" as="offset" />
          </mxGeometry>
        </mxCell>
        <mxCell id="PuATXxOclRqr7p0WLP5T-143" value="Open" style="html=1;whiteSpace=wrap;rounded=1;arcSize=50;" parent="1" vertex="1">
          <mxGeometry x="2356.4" y="1085.5" width="110" height="40" as="geometry" />
        </mxCell>
        <mxCell id="PuATXxOclRqr7p0WLP5T-144" value="" style="endArrow=classic;html=1;rounded=0;exitX=0.493;exitY=1.058;exitDx=0;exitDy=0;exitPerimeter=0;entryX=0.581;entryY=0;entryDx=0;entryDy=0;entryPerimeter=0;" parent="1" source="K3YaIifATm5BKoZFhJyY-14" target="PuATXxOclRqr7p0WLP5T-126" edge="1">
          <mxGeometry relative="1" as="geometry">
            <mxPoint x="2032.38" y="1183.5" as="sourcePoint" />
            <mxPoint x="2143.38" y="1247.5" as="targetPoint" />
          </mxGeometry>
        </mxCell>
        <mxCell id="PuATXxOclRqr7p0WLP5T-145" value="name" style="edgeLabel;resizable=0;html=1;;align=center;verticalAlign=middle;" parent="PuATXxOclRqr7p0WLP5T-144" connectable="0" vertex="1">
          <mxGeometry relative="1" as="geometry" />
        </mxCell>
        <mxCell id="PuATXxOclRqr7p0WLP5T-146" value="" style="endArrow=classic;html=1;rounded=0;exitX=1;exitY=1;exitDx=0;exitDy=0;" parent="1" source="K3YaIifATm5BKoZFhJyY-13" target="PuATXxOclRqr7p0WLP5T-148" edge="1">
          <mxGeometry relative="1" as="geometry">
            <mxPoint x="2141.15" y="1055.5" as="sourcePoint" />
            <mxPoint x="2228.15" y="1105.5" as="targetPoint" />
          </mxGeometry>
        </mxCell>
        <mxCell id="PuATXxOclRqr7p0WLP5T-147" value="identifier" style="edgeLabel;resizable=0;html=1;;align=center;verticalAlign=middle;" parent="PuATXxOclRqr7p0WLP5T-146" connectable="0" vertex="1">
          <mxGeometry relative="1" as="geometry" />
        </mxCell>
        <mxCell id="PuATXxOclRqr7p0WLP5T-148" value="WA 16/QX/Z1" style="html=1;whiteSpace=wrap;rounded=1;arcSize=50;" parent="1" vertex="1">
          <mxGeometry x="2236.4" y="1171" width="110" height="45" as="geometry" />
        </mxCell>
        <mxCell id="IAn0fwHURiPE320ZTQqL-1" value="" style="endArrow=classic;html=1;rounded=0;exitX=1;exitY=0;exitDx=0;exitDy=0;entryX=0.091;entryY=0.84;entryDx=0;entryDy=0;entryPerimeter=0;" edge="1" parent="1" source="K3YaIifATm5BKoZFhJyY-13" target="IAn0fwHURiPE320ZTQqL-3">
          <mxGeometry relative="1" as="geometry">
            <mxPoint x="1985.4" y="1063.5" as="sourcePoint" />
            <mxPoint x="1946.4" y="961" as="targetPoint" />
          </mxGeometry>
        </mxCell>
        <mxCell id="IAn0fwHURiPE320ZTQqL-2" value="representation type" style="edgeLabel;resizable=0;html=1;;align=center;verticalAlign=middle;" connectable="0" vertex="1" parent="IAn0fwHURiPE320ZTQqL-1">
          <mxGeometry relative="1" as="geometry" />
        </mxCell>
        <mxCell id="IAn0fwHURiPE320ZTQqL-3" value="Digital textual" style="html=1;whiteSpace=wrap;rounded=1;arcSize=50;" vertex="1" parent="1">
          <mxGeometry x="2322.15" y="956" width="110" height="50" as="geometry" />
        </mxCell>
        <mxCell id="IAn0fwHURiPE320ZTQqL-4" value="hyp - 25th August 2011" style="swimlane;fontStyle=0;childLayout=stackLayout;horizontal=1;startSize=26;strokeColor=#DDD9C3;strokeWidth=2;fillColor=none;horizontalStack=0;resizeParent=1;resizeParentMax=0;resizeLast=0;collapsible=1;marginBottom=0;whiteSpace=wrap;html=1;" vertex="1" parent="1">
          <mxGeometry x="1750" y="902" width="137" height="52" as="geometry" />
        </mxCell>
        <mxCell id="IAn0fwHURiPE320ZTQqL-5" value="Date" style="text;strokeColor=#DDD9C3;strokeWidth=2;fillColor=#DDD9C3;align=center;verticalAlign=top;spacingLeft=4;spacingRight=4;overflow=hidden;rotatable=0;points=[[0,0.5],[1,0.5]];portConstraint=eastwest;whiteSpace=wrap;html=1;" vertex="1" parent="IAn0fwHURiPE320ZTQqL-4">
          <mxGeometry y="26" width="137" height="26" as="geometry" />
        </mxCell>
        <mxCell id="IAn0fwHURiPE320ZTQqL-6" value="" style="endArrow=classic;html=1;rounded=0;exitX=1;exitY=1;exitDx=0;exitDy=0;entryX=0;entryY=0;entryDx=0;entryDy=0;" edge="1" parent="1" source="IAn0fwHURiPE320ZTQqL-4" target="K3YaIifATm5BKoZFhJyY-13">
          <mxGeometry relative="1" as="geometry">
            <mxPoint x="1836.5" y="990" as="sourcePoint" />
            <mxPoint x="1989.5" y="926" as="targetPoint" />
          </mxGeometry>
        </mxCell>
        <mxCell id="IAn0fwHURiPE320ZTQqL-7" value="is creation date of" style="edgeLabel;resizable=0;html=1;;align=center;verticalAlign=middle;" connectable="0" vertex="1" parent="IAn0fwHURiPE320ZTQqL-6">
          <mxGeometry relative="1" as="geometry" />
        </mxCell>
        <mxCell id="IAn0fwHURiPE320ZTQqL-8" value="" style="endArrow=classic;html=1;rounded=0;exitX=0;exitY=1;exitDx=0;exitDy=0;entryX=1;entryY=0;entryDx=0;entryDy=0;" edge="1" parent="1" source="IAn0fwHURiPE320ZTQqL-4" target="K3YaIifATm5BKoZFhJyY-5">
          <mxGeometry relative="1" as="geometry">
            <mxPoint x="1767" y="926" as="sourcePoint" />
            <mxPoint x="1563" y="1020" as="targetPoint" />
          </mxGeometry>
        </mxCell>
        <mxCell id="IAn0fwHURiPE320ZTQqL-9" value="is creation date of" style="edgeLabel;resizable=0;html=1;;align=center;verticalAlign=middle;" connectable="0" vertex="1" parent="IAn0fwHURiPE320ZTQqL-8">
          <mxGeometry relative="1" as="geometry" />
        </mxCell>
        <mxCell id="IAn0fwHURiPE320ZTQqL-10" value="25th August 2011" style="html=1;whiteSpace=wrap;rounded=1;arcSize=50;" vertex="1" parent="1">
          <mxGeometry x="1923" y="730" width="110" height="40" as="geometry" />
        </mxCell>
        <mxCell id="IAn0fwHURiPE320ZTQqL-11" value="2011/08/25" style="html=1;whiteSpace=wrap;rounded=1;arcSize=50;" vertex="1" parent="1">
          <mxGeometry x="1990.52" y="804.5" width="140" height="40" as="geometry" />
        </mxCell>
        <mxCell id="IAn0fwHURiPE320ZTQqL-12" value="hyp" style="html=1;whiteSpace=wrap;rounded=1;arcSize=50;" vertex="1" parent="1">
          <mxGeometry x="2005.52" y="889.5" width="110" height="35" as="geometry" />
        </mxCell>
        <mxCell id="IAn0fwHURiPE320ZTQqL-13" value="" style="endArrow=classic;html=1;rounded=0;exitX=0.5;exitY=0;exitDx=0;exitDy=0;entryX=0.098;entryY=0.865;entryDx=0;entryDy=0;entryPerimeter=0;" edge="1" parent="1" source="IAn0fwHURiPE320ZTQqL-4" target="IAn0fwHURiPE320ZTQqL-10">
          <mxGeometry relative="1" as="geometry">
            <mxPoint x="1720" y="858.5" as="sourcePoint" />
            <mxPoint x="1890" y="826.5" as="targetPoint" />
          </mxGeometry>
        </mxCell>
        <mxCell id="IAn0fwHURiPE320ZTQqL-14" value="expressed date" style="edgeLabel;resizable=0;html=1;;align=center;verticalAlign=middle;" connectable="0" vertex="1" parent="IAn0fwHURiPE320ZTQqL-13">
          <mxGeometry relative="1" as="geometry" />
        </mxCell>
        <mxCell id="IAn0fwHURiPE320ZTQqL-15" value="" style="endArrow=classic;html=1;rounded=0;exitX=1;exitY=0.5;exitDx=0;exitDy=0;entryX=0;entryY=0.5;entryDx=0;entryDy=0;" edge="1" parent="1" source="IAn0fwHURiPE320ZTQqL-4" target="IAn0fwHURiPE320ZTQqL-12">
          <mxGeometry relative="1" as="geometry">
            <mxPoint x="1757" y="875.5" as="sourcePoint" />
            <mxPoint x="1921" y="944.5" as="targetPoint" />
          </mxGeometry>
        </mxCell>
        <mxCell id="IAn0fwHURiPE320ZTQqL-16" value="identifier" style="edgeLabel;resizable=0;html=1;;align=center;verticalAlign=middle;" connectable="0" vertex="1" parent="IAn0fwHURiPE320ZTQqL-15">
          <mxGeometry relative="1" as="geometry" />
        </mxCell>
        <mxCell id="IAn0fwHURiPE320ZTQqL-17" value="" style="endArrow=classic;html=1;rounded=0;exitX=1;exitY=0;exitDx=0;exitDy=0;entryX=0;entryY=0.5;entryDx=0;entryDy=0;" edge="1" parent="1" source="IAn0fwHURiPE320ZTQqL-4" target="IAn0fwHURiPE320ZTQqL-11">
          <mxGeometry relative="1" as="geometry">
            <mxPoint x="1572" y="825" as="sourcePoint" />
            <mxPoint x="1734" y="848" as="targetPoint" />
          </mxGeometry>
        </mxCell>
        <mxCell id="IAn0fwHURiPE320ZTQqL-18" value="normalized date" style="edgeLabel;resizable=0;html=1;;align=center;verticalAlign=middle;" connectable="0" vertex="1" parent="IAn0fwHURiPE320ZTQqL-17">
          <mxGeometry relative="1" as="geometry" />
        </mxCell>
      </root>
    </mxGraphModel>
  </diagram>
</mxfile>
